<?xml version="1.0" encoding="UTF-8"?><svg xmlns="http://www.w3.org/2000/svg" xmlns:xlink="http://www.w3.org/1999/xlink" fill-opacity="1" color-rendering="auto" color-interpolation="auto" text-rendering="auto" stroke="black" stroke-linecap="square" width="1331" stroke-miterlimit="10" shape-rendering="auto" stroke-opacity="1" fill="black" stroke-dasharray="none" font-weight="normal" stroke-width="1" height="972" font-family="'Dialog'" font-style="normal" stroke-linejoin="miter" font-size="12" stroke-dashoffset="0" image-rendering="auto">
  <!--Generated by ySVG 2.5-->
  <defs id="genericDefs"/>
  <g>
    <defs id="defs1">
      <clipPath clipPathUnits="userSpaceOnUse" id="clipPath1">
        <path d="M0 0 L1331 0 L1331 972 L0 972 L0 0 Z"/>
      </clipPath>
      <clipPath clipPathUnits="userSpaceOnUse" id="clipPath2">
        <path d="M314 -455 L1645 -455 L1645 517 L314 517 L314 -455 Z"/>
      </clipPath>
    </defs>
    <g fill="white" text-rendering="geometricPrecision" shape-rendering="geometricPrecision" transform="translate(-314,455)" stroke="white">
      <rect x="314" width="1331" height="972" y="-455" clip-path="url(#clipPath2)" stroke="none"/>
    </g>
    <g fill="white" text-rendering="geometricPrecision" shape-rendering="geometricPrecision" transform="matrix(1,0,0,1,-314,455)" stroke="white">
      <rect x="1341.2948" width="140" height="30" y="133.2911" clip-path="url(#clipPath2)" stroke="none"/>
    </g>
    <g text-rendering="geometricPrecision" stroke-miterlimit="1.45" shape-rendering="geometricPrecision" font-family="sans-serif" transform="matrix(1,0,0,1,-314,455)" stroke-linecap="butt">
      <text x="1376.6132" xml:space="preserve" y="153.005" clip-path="url(#clipPath2)" stroke="none">le:Instrument</text>
      <rect fill="none" x="1341.2948" width="140" height="30" y="133.2911" clip-path="url(#clipPath2)"/>
    </g>
    <g fill="white" text-rendering="geometricPrecision" shape-rendering="geometricPrecision" transform="matrix(1,0,0,1,-314,455)" stroke="white">
      <rect x="1381.0222" width="140" height="30" y="-239.4202" clip-path="url(#clipPath2)" stroke="none"/>
    </g>
    <g text-rendering="geometricPrecision" stroke-miterlimit="1.45" shape-rendering="geometricPrecision" font-family="sans-serif" transform="matrix(1,0,0,1,-314,455)" stroke-linecap="butt">
      <text x="1393.9958" xml:space="preserve" y="-219.7063" clip-path="url(#clipPath2)" stroke="none">le:ProxySensorModel</text>
      <rect fill="none" x="1381.0222" width="140" height="30" y="-239.4202" clip-path="url(#clipPath2)"/>
    </g>
    <g fill="white" text-rendering="geometricPrecision" shape-rendering="geometricPrecision" transform="matrix(1,0,0,1,-314,455)" stroke="white">
      <rect x="1371.2948" width="100" height="30" y="47.6227" clip-path="url(#clipPath2)" stroke="none"/>
    </g>
    <g text-rendering="geometricPrecision" stroke-miterlimit="1.45" shape-rendering="geometricPrecision" font-family="sans-serif" transform="matrix(1,0,0,1,-314,455)" stroke-linecap="butt">
      <text x="1379.6141" xml:space="preserve" y="67.3366" clip-path="url(#clipPath2)" stroke="none">le:ProxyArchive</text>
      <rect fill="none" x="1371.2948" width="100" height="30" y="47.6227" clip-path="url(#clipPath2)"/>
    </g>
    <g fill="white" text-rendering="geometricPrecision" shape-rendering="geometricPrecision" transform="matrix(1,0,0,1,-314,455)" stroke="white">
      <rect x="1381.0222" width="190" height="30" y="-299.4202" clip-path="url(#clipPath2)" stroke="none"/>
    </g>
    <g text-rendering="geometricPrecision" stroke-miterlimit="1.45" shape-rendering="geometricPrecision" font-family="sans-serif" transform="matrix(1,0,0,1,-314,455)" stroke-linecap="butt">
      <text x="1405.657" xml:space="preserve" y="-279.7063" clip-path="url(#clipPath2)" stroke="none">le:ProxyObservationModel</text>
      <rect fill="none" x="1381.0222" width="190" height="30" y="-299.4202" clip-path="url(#clipPath2)"/>
    </g>
    <g fill="white" text-rendering="geometricPrecision" shape-rendering="geometricPrecision" transform="matrix(1,0,0,1,-314,455)" stroke="white">
      <rect x="946.6149" width="110" height="30" y="301.7189" clip-path="url(#clipPath2)" stroke="none"/>
    </g>
    <g text-rendering="geometricPrecision" stroke-miterlimit="1.45" shape-rendering="geometricPrecision" font-family="sans-serif" transform="matrix(1,0,0,1,-314,455)" stroke-linecap="butt">
      <text x="973.2643" xml:space="preserve" y="321.4328" clip-path="url(#clipPath2)" stroke="none">le:Variable</text>
      <rect fill="none" x="946.6149" width="110" height="30" y="301.7189" clip-path="url(#clipPath2)"/>
    </g>
    <g fill="white" text-rendering="geometricPrecision" shape-rendering="geometricPrecision" transform="matrix(1,0,0,1,-314,455)" stroke="white">
      <rect x="1216.6149" width="140" height="30" y="256.2449" clip-path="url(#clipPath2)" stroke="none"/>
    </g>
    <g text-rendering="geometricPrecision" stroke-miterlimit="1.45" shape-rendering="geometricPrecision" font-family="sans-serif" transform="matrix(1,0,0,1,-314,455)" stroke-linecap="butt">
      <text x="1235.2545" xml:space="preserve" y="275.9588" clip-path="url(#clipPath2)" stroke="none">le:CalibrationModel</text>
      <rect fill="none" x="1216.6149" width="140" height="30" y="256.2449" clip-path="url(#clipPath2)"/>
      <text x="667.2841" xml:space="preserve" y="23.005" clip-path="url(#clipPath2)" stroke="none">le:Data</text>
      <rect fill="none" x="651.2948" width="70" height="30" y="3.2911" clip-path="url(#clipPath2)"/>
    </g>
    <g fill="white" text-rendering="geometricPrecision" shape-rendering="geometricPrecision" transform="matrix(1,0,0,1,-314,455)" stroke="white">
      <rect x="1071.2948" width="140" height="30" y="47.6227" clip-path="url(#clipPath2)" stroke="none"/>
    </g>
    <g text-rendering="geometricPrecision" stroke-miterlimit="1.45" shape-rendering="geometricPrecision" font-family="sans-serif" transform="matrix(1,0,0,1,-314,455)" stroke-linecap="butt">
      <text x="1086.2635" xml:space="preserve" y="67.3366" clip-path="url(#clipPath2)" stroke="none">le:MeasuredVariable</text>
      <rect fill="none" x="1071.2948" width="140" height="30" y="47.6227" clip-path="url(#clipPath2)"/>
    </g>
    <g fill="white" text-rendering="geometricPrecision" shape-rendering="geometricPrecision" transform="matrix(1,0,0,1,-314,455)" stroke="white">
      <rect x="1381.0222" width="130" height="30" y="-185.7166" clip-path="url(#clipPath2)" stroke="none"/>
    </g>
    <g text-rendering="geometricPrecision" stroke-miterlimit="1.45" shape-rendering="geometricPrecision" font-family="sans-serif" transform="matrix(1,0,0,1,-314,455)" stroke-linecap="butt">
      <text x="1411.3347" xml:space="preserve" y="-166.0027" clip-path="url(#clipPath2)" stroke="none">le:Resolution</text>
      <rect fill="none" x="1381.0222" width="130" height="30" y="-185.7166" clip-path="url(#clipPath2)"/>
    </g>
    <g fill="white" text-rendering="geometricPrecision" shape-rendering="geometricPrecision" transform="matrix(1,0,0,1,-314,455)" stroke="white">
      <rect x="1381.0222" width="150" height="30" y="-429.4202" clip-path="url(#clipPath2)" stroke="none"/>
    </g>
    <g text-rendering="geometricPrecision" stroke-miterlimit="1.45" shape-rendering="geometricPrecision" font-family="sans-serif" transform="matrix(1,0,0,1,-314,455)" stroke-linecap="butt">
      <text x="1397.9998" xml:space="preserve" y="-409.7063" clip-path="url(#clipPath2)" stroke="none">le:ProxyArchiveModel</text>
      <rect fill="none" x="1381.0222" width="150" height="30" y="-429.4202" clip-path="url(#clipPath2)"/>
      <text x="740.9254" xml:space="preserve" y="490.9086" clip-path="url(#clipPath2)" stroke="none">le:Publication</text>
      <rect fill="none" x="706.6149" width="140" height="30" y="471.1948" clip-path="url(#clipPath2)"/>
      <text x="389.873" xml:space="preserve" y="-219.7063" clip-path="url(#clipPath2)" stroke="none">le:Dataset</text>
      <rect fill="none" x="366.8876" width="100" height="30" y="-239.4202" clip-path="url(#clipPath2)"/>
      <text x="764.347" xml:space="preserve" y="-190.7063" clip-path="url(#clipPath2)" stroke="none">le:Funding</text>
      <rect fill="none" x="742.3665" width="100" height="30" y="-210.4202" clip-path="url(#clipPath2)"/>
      <text x="650.9307" xml:space="preserve" y="-115.428" clip-path="url(#clipPath2)" stroke="none">le:Location</text>
      <rect fill="none" x="624.9522" width="110" height="30" y="-135.1418" clip-path="url(#clipPath2)"/>
      <text x="859.6171" xml:space="preserve" y="23.005" clip-path="url(#clipPath2)" stroke="none">le:ProxySystem</text>
      <rect fill="none" x="856.2948" width="90" height="30" y="3.2911" clip-path="url(#clipPath2)"/>
      <text x="1103.0027" xml:space="preserve" y="-303.4176" clip-path="url(#clipPath2)" stroke="none">le:ProxySystemModel</text>
      <rect fill="none" x="1066.0222" width="190" height="30" y="-323.1315" clip-path="url(#clipPath2)"/>
      <text x="742.5953" xml:space="preserve" y="321.4328" clip-path="url(#clipPath2)" stroke="none">le:DataTable</text>
      <rect fill="none" x="716.6149" width="120" height="30" y="301.7189" clip-path="url(#clipPath2)"/>
      <text x="959.9225" xml:space="preserve" y="399.0885" clip-path="url(#clipPath2)" stroke="none">le:Interpretation</text>
      <rect fill="none" x="946.6149" width="110" height="30" y="379.3747" clip-path="url(#clipPath2)"/>
      <text x="1215.7703" xml:space="preserve" y="-82.746" clip-path="url(#clipPath2)" stroke="none">le:ProxySensor</text>
      <rect fill="none" x="1211.4548" width="90" height="30" y="-102.4599" clip-path="url(#clipPath2)"/>
    </g>
    <g fill="white" text-rendering="geometricPrecision" shape-rendering="geometricPrecision" transform="matrix(1,0,0,1,-314,455)" stroke="white">
      <rect x="1458.3639" width="110" height="30" y="262.891" clip-path="url(#clipPath2)" stroke="none"/>
    </g>
    <g text-rendering="geometricPrecision" stroke-miterlimit="1.45" shape-rendering="geometricPrecision" font-family="sans-serif" transform="matrix(1,0,0,1,-314,455)" stroke-linecap="butt">
      <text x="1483.0182" xml:space="preserve" y="282.6049" clip-path="url(#clipPath2)" stroke="none">Uncertainty</text>
      <rect fill="none" x="1458.3639" width="110" height="30" y="262.891" clip-path="url(#clipPath2)"/>
      <text x="762.0189" xml:space="preserve" y="-277.5556" clip-path="url(#clipPath2)" stroke="none">le:Person</text>
      <rect fill="none" x="732.3665" width="110" height="30" y="-297.2695" clip-path="url(#clipPath2)"/>
    </g>
    <g fill="white" text-rendering="geometricPrecision" shape-rendering="geometricPrecision" transform="matrix(1,0,0,1,-314,455)" stroke="white">
      <rect x="1135.4945" width="140" height="30" y="169.3947" clip-path="url(#clipPath2)" stroke="none"/>
    </g>
    <g text-rendering="geometricPrecision" stroke-miterlimit="1.45" shape-rendering="geometricPrecision" font-family="sans-serif" transform="matrix(1,0,0,1,-314,455)" stroke-linecap="butt">
      <text x="1156.4662" xml:space="preserve" y="189.1086" clip-path="url(#clipPath2)" stroke="none">le:InferredVariable</text>
      <rect fill="none" x="1135.4945" width="140" height="30" y="169.3947" clip-path="url(#clipPath2)"/>
      <text x="1048.7206" xml:space="preserve" y="-219.7063" clip-path="url(#clipPath2)" stroke="none">le:Model</text>
      <rect fill="none" x="1006.3993" width="130" height="30" y="-239.4202" clip-path="url(#clipPath2)"/>
      <text x="615.9423" xml:space="preserve" y="119.1671" clip-path="url(#clipPath2)" stroke="none">le:ChronData</text>
      <rect fill="none" x="601.2948" width="100" height="30" y="99.4532" clip-path="url(#clipPath2)"/>
      <text x="616.9384" xml:space="preserve" y="161.4379" clip-path="url(#clipPath2)" stroke="none">le:PaleoData</text>
      <rect fill="none" x="601.2948" width="100" height="30" y="141.724" clip-path="url(#clipPath2)"/>
      <text x="514.2283" xml:space="preserve" y="203.7087" clip-path="url(#clipPath2)" stroke="none">le:ChronDataTable</text>
      <rect fill="none" x="504.5896" width="120" height="30" y="183.9949" clip-path="url(#clipPath2)"/>
      <text x="515.2244" xml:space="preserve" y="243.1568" clip-path="url(#clipPath2)" stroke="none">le:PaleoDataTable</text>
      <rect fill="none" x="504.5896" width="120" height="30" y="223.4429" clip-path="url(#clipPath2)"/>
      <text x="516.5633" xml:space="preserve" y="282.6049" clip-path="url(#clipPath2)" stroke="none">le:EnsembleTable</text>
      <rect fill="none" x="504.5896" width="120" height="30" y="262.891" clip-path="url(#clipPath2)"/>
      <text x="513.2322" xml:space="preserve" y="321.4328" clip-path="url(#clipPath2)" stroke="none">le:DistributionTable</text>
      <rect fill="none" x="504.5896" width="120" height="30" y="301.7189" clip-path="url(#clipPath2)"/>
      <text x="506.5613" xml:space="preserve" y="360.2607" clip-path="url(#clipPath2)" stroke="none">le:MeasurementTable</text>
      <rect fill="none" x="504.5896" width="120" height="30" y="340.5468" clip-path="url(#clipPath2)"/>
      <text x="522.5721" xml:space="preserve" y="399.0885" clip-path="url(#clipPath2)" stroke="none">le:SumaryTable</text>
      <rect fill="none" x="504.5896" width="120" height="30" y="379.3747" clip-path="url(#clipPath2)"/>
    </g>
    <g fill="white" text-rendering="geometricPrecision" shape-rendering="geometricPrecision" transform="matrix(1,0,0,1,-314,455)" stroke="white">
      <rect x="1154.8222" width="110" height="30" y="-182.3365" clip-path="url(#clipPath2)" stroke="none"/>
    </g>
    <g text-rendering="geometricPrecision" stroke-miterlimit="1.45" shape-rendering="geometricPrecision" font-family="sans-serif" transform="matrix(1,0,0,1,-314,455)" stroke-linecap="butt">
      <text x="1165.4639" xml:space="preserve" y="-162.6227" clip-path="url(#clipPath2)" stroke="none">le:SoftwareCode</text>
      <rect fill="none" x="1154.8222" width="110" height="30" y="-182.3365" clip-path="url(#clipPath2)"/>
      <text x="1037.0017" xml:space="preserve" y="-377.4152" clip-path="url(#clipPath2)" stroke="none">le:ChronModel</text>
      <rect fill="none" x="1011.0222" width="130" height="30" y="-397.1291" clip-path="url(#clipPath2)"/>
      <text x="1037.9978" xml:space="preserve" y="-419.7063" clip-path="url(#clipPath2)" stroke="none">le:PaleoModel</text>
      <rect fill="none" x="1011.0222" width="130" height="30" y="-439.4202" clip-path="url(#clipPath2)"/>
      <text x="844.574" xml:space="preserve" y="81.5279" clip-path="url(#clipPath2)" stroke="none">le:ChronProxy</text>
      <rect fill="none" x="842.5896" width="80" height="30" y="61.814" clip-path="url(#clipPath2)"/>
      <text x="835.5779" xml:space="preserve" y="119.1671" clip-path="url(#clipPath2)" stroke="none">le:ClimateProxy</text>
      <rect fill="none" x="832.5896" width="90" height="30" y="99.4532" clip-path="url(#clipPath2)"/>
      <text x="1369.6658" xml:space="preserve" y="-106.0027" clip-path="url(#clipPath2)" stroke="none">le:OrganicSensor</text>
      <rect fill="none" x="1360.7496" width="110.5452" height="30" y="-125.7166" clip-path="url(#clipPath2)"/>
      <text x="1365.9919" xml:space="preserve" y="-54.4525" clip-path="url(#clipPath2)" stroke="none">le:InorganicSensor</text>
      <rect fill="none" x="1360.7496" width="110.5452" height="30" y="-74.1664" clip-path="url(#clipPath2)"/>
    </g>
    <g fill="white" text-rendering="geometricPrecision" shape-rendering="geometricPrecision" transform="matrix(1,0,0,1,-314,455)" stroke="white">
      <rect x="952.5896" width="140" height="30" y="141.724" clip-path="url(#clipPath2)" stroke="none"/>
    </g>
    <g text-rendering="geometricPrecision" stroke-miterlimit="1.45" shape-rendering="geometricPrecision" font-family="sans-serif" transform="matrix(1,0,0,1,-314,455)" stroke-linecap="butt">
      <text x="968.5662" xml:space="preserve" y="161.4379" clip-path="url(#clipPath2)" stroke="none">le:ProxyObservation</text>
      <rect fill="none" x="952.5896" width="140" height="30" y="141.724" clip-path="url(#clipPath2)"/>
      <path fill="none" d="M1211.3323 71.0606 L1357.4486 71.0606 L1357.4486 125.2983" clip-path="url(#clipPath2)"/>
      <path d="M1357.4486 133.2983 L1362.4486 121.2983 L1357.4486 124.2983 L1352.4486 121.2983 Z" clip-path="url(#clipPath2)" stroke="none"/>
      <rect x="1340.9707" y="90.1281" clip-path="url(#clipPath2)" fill="white" width="84.0391" height="18.7012" stroke="none"/>
      <text x="1342.9707" xml:space="preserve" y="104.1926" clip-path="url(#clipPath2)" stroke="none">le:measuredBy</text>
      <path fill="none" d="M1211.2948 56.6227 L1363.2557 56.6227" clip-path="url(#clipPath2)"/>
      <path d="M1371.2557 56.6227 L1359.2557 51.6227 L1362.2557 56.6227 L1359.2557 61.6227 Z" clip-path="url(#clipPath2)" stroke="none"/>
      <rect x="1248.2733" y="47.2722" clip-path="url(#clipPath2)" fill="white" width="86.043" height="18.7012" stroke="none"/>
      <text x="1250.2733" xml:space="preserve" y="61.3366" clip-path="url(#clipPath2)" stroke="none">le:measuredOn</text>
      <path fill="none" d="M1200.9613 77.6394 L1200.9613 144.2973 L1308.9987 144.2973 L1308.9987 248.2201" clip-path="url(#clipPath2)"/>
      <path d="M1308.9987 256.2202 L1313.9987 244.2202 L1308.9987 247.2202 L1303.9987 244.2202 Z" clip-path="url(#clipPath2)" stroke="none"/>
      <rect x="1206.6293" y="134.9467" clip-path="url(#clipPath2)" fill="white" width="96.7012" height="18.7012" stroke="none"/>
      <text x="1208.6294" xml:space="preserve" y="149.0111" clip-path="url(#clipPath2)" stroke="none">le:calibratedFrom</text>
      <path fill="none" d="M1122.54 77.6243 L1122.54 279.9207 L1001.6149 279.9207 L1001.6149 293.7189" clip-path="url(#clipPath2)"/>
      <path d="M1001.6149 301.7189 L1006.6149 289.7189 L1001.6149 292.7189 L996.6149 289.7189 Z" clip-path="url(#clipPath2)" stroke="none"/>
      <rect x="1084.765" y="270.5701" clip-path="url(#clipPath2)" fill="white" width="20.6699" height="18.7012" stroke="none"/>
      <text x="1086.765" xml:space="preserve" y="284.6345" clip-path="url(#clipPath2)" stroke="none">isA</text>
      <path fill="none" d="M1471.2948 62.6227 L1489.1771 62.6227 L1489.1771 -147.7076" clip-path="url(#clipPath2)"/>
      <path d="M1489.1771 -155.7076 L1484.1771 -143.7076 L1489.1771 -146.7076 L1494.1771 -143.7076 Z" clip-path="url(#clipPath2)" stroke="none"/>
      <rect x="1437.3615" y="0.8512" clip-path="url(#clipPath2)" fill="white" width="92.7227" height="18.7012" stroke="none"/>
      <text x="1439.3615" xml:space="preserve" y="14.9156" clip-path="url(#clipPath2)" stroke="none">le:hasResolution</text>
      <path fill="none" d="M1286.6149 286.2449 L1286.6149 470.0558 L1264.4758 492.1948 L854.6149 492.1948" clip-path="url(#clipPath2)"/>
      <path d="M846.6149 492.1948 L858.6149 497.1948 L855.6149 492.1948 L858.6149 487.1948 Z" clip-path="url(#clipPath2)" stroke="none"/>
      <text x="1091.5725" xml:space="preserve" y="485.558" clip-path="url(#clipPath2)" stroke="none">le:calibrationReferences</text>
      <path fill="none" d="M385.5543 -209.4202 L385.5543 463.225 L408.5241 486.1948 L698.5785 486.1948" clip-path="url(#clipPath2)"/>
      <path d="M706.5785 486.1948 L694.5785 481.1948 L697.5785 486.1948 L694.5785 491.1948 Z" clip-path="url(#clipPath2)" stroke="none"/>
      <text x="558.6443" xml:space="preserve" y="479.558" clip-path="url(#clipPath2)" stroke="none">le:publishedIn</text>
      <path fill="none" d="M416.8876 -209.4202 L416.8876 -4.1124 L439.2911 18.2911 L643.2689 18.2911" clip-path="url(#clipPath2)"/>
      <path d="M651.2689 18.2911 L639.2689 13.2911 L642.2689 18.2911 L639.2689 23.2911 Z" clip-path="url(#clipPath2)" stroke="none"/>
      <rect x="478.2563" y="8.9405" clip-path="url(#clipPath2)" fill="white" width="86.0488" height="18.7012" stroke="none"/>
      <text x="480.2563" xml:space="preserve" y="23.005" clip-path="url(#clipPath2)" stroke="none">le:includesData</text>
      <path fill="none" d="M466.8876 -228.4202 L787.5798 -228.4202 L792.3665 -223.6335 L792.3665 -218.446" clip-path="url(#clipPath2)"/>
      <path d="M792.3665 -210.446 L797.3665 -222.446 L792.3665 -219.446 L787.3665 -222.446 Z" clip-path="url(#clipPath2)" stroke="none"/>
      <rect x="612.8885" y="-237.7708" clip-path="url(#clipPath2)" fill="white" width="67.3809" height="18.7012" stroke="none"/>
      <text x="614.8885" xml:space="preserve" y="-223.7063" clip-path="url(#clipPath2)" stroke="none">le:fundedBy</text>
      <path fill="none" d="M448.221 -209.4202 L448.221 -142.779 L470.8582 -120.1418 L616.9146 -120.1418" clip-path="url(#clipPath2)"/>
      <path d="M624.9146 -120.1418 L612.9146 -125.1418 L615.9146 -120.1418 L612.9146 -115.1418 Z" clip-path="url(#clipPath2)" stroke="none"/>
      <text x="478.3817" xml:space="preserve" y="-126.7785" clip-path="url(#clipPath2)" stroke="none">le:collectedFrom</text>
      <path fill="none" d="M1141.8224 47.658 L1141.8224 18.2911 L954.2948 18.2911" clip-path="url(#clipPath2)"/>
      <path d="M946.2948 18.2911 L958.2948 23.2911 L955.2948 18.2911 L958.2948 13.2911 Z" clip-path="url(#clipPath2)" stroke="none"/>
      <rect x="1009.5712" y="8.0792" clip-path="url(#clipPath2)" fill="white" width="106.7031" height="18.7012" stroke="none"/>
      <text x="1011.5712" xml:space="preserve" y="22.1437" clip-path="url(#clipPath2)" stroke="none">le:hasProxySystem</text>
      <path fill="none" d="M922.1073 3.2599 L922.1073 -12.7089 L1397.7948 -12.7089 L1397.7948 39.5933" clip-path="url(#clipPath2)"/>
      <path d="M1397.7948 47.5933 L1402.7948 35.5933 L1397.7948 38.5933 L1392.7948 35.5933 Z" clip-path="url(#clipPath2)" stroke="none"/>
      <rect x="1141.8542" y="-22.0595" clip-path="url(#clipPath2)" fill="white" width="106.709" height="18.7012" stroke="none"/>
      <text x="1143.8542" xml:space="preserve" y="-7.995" clip-path="url(#clipPath2)" stroke="none">le:hasProxyArchive</text>
      <path fill="none" d="M1199.7107 -293.1315 L1199.7107 -248.728 L1218.0186 -230.4202 L1372.9824 -230.4202" clip-path="url(#clipPath2)"/>
      <path d="M1380.9824 -230.4202 L1368.9824 -235.4202 L1371.9824 -230.4202 L1368.9824 -225.4202 Z" clip-path="url(#clipPath2)" stroke="none"/>
      <rect x="1140.1644" y="-248.9247" clip-path="url(#clipPath2)" fill="white" width="137.4004" height="18.7012" stroke="none"/>
      <text x="1142.1644" xml:space="preserve" y="-234.8602" clip-path="url(#clipPath2)" stroke="none">le:hasProxySensorModel</text>
      <path fill="none" d="M1256.0222 -296.2758 L1372.9917 -296.2758" clip-path="url(#clipPath2)"/>
      <path d="M1380.9917 -296.2758 L1368.9917 -301.2758 L1371.9917 -296.2758 L1368.9917 -291.2758 Z" clip-path="url(#clipPath2)" stroke="none"/>
      <text x="1262.2533" xml:space="preserve" y="-304.0922" clip-path="url(#clipPath2)" stroke="none">le:hasProxyObservationModel</text>
      <path fill="none" d="M1202.0222 -323.1651 L1202.0222 -392.0061 L1224.4363 -414.4202 L1372.984 -414.4202" clip-path="url(#clipPath2)"/>
      <path d="M1380.984 -414.4202 L1368.984 -419.4202 L1371.984 -414.4202 L1368.984 -409.4202 Z" clip-path="url(#clipPath2)" stroke="none"/>
      <rect x="1176.0757" y="-423.7708" clip-path="url(#clipPath2)" fill="white" width="139.3926" height="18.7012" stroke="none"/>
      <text x="1178.0757" xml:space="preserve" y="-409.7063" clip-path="url(#clipPath2)" stroke="none">le:hasProxyArchiveModel</text>
      <path fill="none" d="M721.2948 26.2911 L738.2911 26.2911 L744.9522 32.9522 L744.9522 293.6861" clip-path="url(#clipPath2)"/>
      <path d="M744.9522 301.6861 L749.9522 289.6861 L744.9522 292.6861 L739.9522 289.6861 Z" clip-path="url(#clipPath2)" stroke="none"/>
      <rect x="737.9248" y="188.0443" clip-path="url(#clipPath2)" fill="white" width="74.0547" height="18.7012" stroke="none"/>
      <text x="739.9249" xml:space="preserve" y="202.1088" clip-path="url(#clipPath2)" stroke="none">foundInTable</text>
      <path fill="none" d="M1108.7365 77.6373 L1108.7365 235.2158 L1087.5037 258.167 L833.5037 258.167 L820.9488 270.7219 L820.9488 293.6886" clip-path="url(#clipPath2)"/>
      <path d="M820.9488 301.6886 L825.9488 289.6886 L820.9488 292.6886 L815.9488 289.6886 Z" clip-path="url(#clipPath2)" stroke="none"/>
      <rect x="977.6433" y="248.8164" clip-path="url(#clipPath2)" fill="white" width="86.7285" height="18.7012" stroke="none"/>
      <text x="979.6433" xml:space="preserve" y="262.8808" clip-path="url(#clipPath2)" stroke="none">le:foundInTable</text>
      <path fill="none" d="M946.588 322.7189 L844.6149 322.7189" clip-path="url(#clipPath2)"/>
      <path d="M836.6149 322.7189 L848.6149 327.7189 L845.6149 322.7189 L848.6149 317.7189 Z" clip-path="url(#clipPath2)" stroke="none"/>
      <rect x="851.3104" y="325.6305" clip-path="url(#clipPath2)" fill="white" width="86.7285" height="18.7012" stroke="none"/>
      <text x="853.3104" xml:space="preserve" y="339.695" clip-path="url(#clipPath2)" stroke="none">le:foundInTable</text>
      <path fill="none" d="M836.6149 310.7189 L938.588 310.7189" clip-path="url(#clipPath2)"/>
      <path d="M946.588 310.7189 L934.588 305.7189 L937.588 310.7189 L934.588 315.7189 Z" clip-path="url(#clipPath2)" stroke="none"/>
      <text x="841.2506" xml:space="preserve" y="304.0822" clip-path="url(#clipPath2)" stroke="none">le:includesVariable</text>
      <path fill="none" d="M1001.6149 331.7189 L1001.6149 371.3281" clip-path="url(#clipPath2)"/>
      <path d="M1001.6149 379.3281 L1006.6149 367.3281 L1001.6149 370.3281 L996.6149 367.3281 Z" clip-path="url(#clipPath2)" stroke="none"/>
      <rect x="957.5914" y="336.7189" clip-path="url(#clipPath2)" fill="white" width="88.0469" height="18.7012" stroke="none"/>
      <text x="959.5914" xml:space="preserve" y="350.7834" clip-path="url(#clipPath2)" stroke="none">le:interpretedAs</text>
      <path fill="none" d="M1001.6149 409.3747 L1001.6149 459.0558 L980.4759 480.1948 L854.6149 480.1948" clip-path="url(#clipPath2)"/>
      <path d="M846.6149 480.1948 L858.6149 485.1948 L855.6149 480.1948 L858.6149 475.1948 Z" clip-path="url(#clipPath2)" stroke="none"/>
      <rect x="927.5739" y="432.0399" clip-path="url(#clipPath2)" fill="white" width="148.082" height="18.7012" stroke="none"/>
      <text x="929.5739" xml:space="preserve" y="446.1044" clip-path="url(#clipPath2)" stroke="none">le:interpretationReferences</text>
      <path fill="none" d="M1436.6052 47.5806 L1436.6052 -26.8114 L1256.4548 -26.8114 L1256.4548 -64.4599" clip-path="url(#clipPath2)"/>
      <path d="M1256.4548 -72.4599 L1251.4548 -60.4599 L1256.4548 -63.4599 L1261.4548 -60.4599 Z" clip-path="url(#clipPath2)" stroke="none"/>
      <rect x="1340.3306" y="-36.162" clip-path="url(#clipPath2)" fill="white" width="82.0352" height="18.7012" stroke="none"/>
      <text x="1342.3306" xml:space="preserve" y="-22.0975" clip-path="url(#clipPath2)" stroke="none">le:sensingWith</text>
      <path fill="none" d="M910.5703 3.2645 L910.5703 -32.492 L1222.76 -32.492 L1222.76 -64.4804" clip-path="url(#clipPath2)"/>
      <path d="M1222.76 -72.4804 L1217.76 -60.4804 L1222.76 -63.4804 L1227.76 -60.4804 Z" clip-path="url(#clipPath2)" stroke="none"/>
      <rect x="1063.502" y="-41.8426" clip-path="url(#clipPath2)" fill="white" width="104.7168" height="18.7012" stroke="none"/>
      <text x="1065.5021" xml:space="preserve" y="-27.7782" clip-path="url(#clipPath2)" stroke="none">le:hasProxySensor</text>
      <path fill="none" d="M1356.6149 274.568 L1450.3142 274.568" clip-path="url(#clipPath2)"/>
      <path d="M1458.3142 274.568 L1446.3142 269.568 L1449.3142 274.568 L1446.3142 279.568 Z" clip-path="url(#clipPath2)" stroke="none"/>
      <rect x="1359.6236" y="251.3701" clip-path="url(#clipPath2)" fill="white" width="96.7129" height="18.7012" stroke="none"/>
      <text x="1361.6235" xml:space="preserve" y="265.4345" clip-path="url(#clipPath2)" stroke="none">le:hasUncertainty</text>
      <path fill="none" d="M1472.3293 163.3336 L1472.3293 254.8424" clip-path="url(#clipPath2)"/>
      <path d="M1472.3293 262.8424 L1477.3293 250.8424 L1472.3293 253.8424 L1467.3293 250.8424 Z" clip-path="url(#clipPath2)" stroke="none"/>
      <rect x="1423.9729" y="203.7405" clip-path="url(#clipPath2)" fill="white" width="96.7129" height="18.7012" stroke="none"/>
      <text x="1425.9729" xml:space="preserve" y="217.8049" clip-path="url(#clipPath2)" stroke="none">le:hasUncertainty</text>
      <path fill="none" d="M1056.6149 316.7189 L1506.9518 316.7189 L1513.3639 310.3068 L1513.3639 300.891" clip-path="url(#clipPath2)"/>
      <path d="M1513.3639 292.891 L1508.3639 304.891 L1513.3639 301.891 L1518.3639 304.891 Z" clip-path="url(#clipPath2)" stroke="none"/>
      <rect x="1305.3823" y="307.3683" clip-path="url(#clipPath2)" fill="white" width="96.7129" height="18.7012" stroke="none"/>
      <text x="1307.3823" xml:space="preserve" y="321.4328" clip-path="url(#clipPath2)" stroke="none">le:hasUncertainty</text>
      <path fill="none" d="M1521.0222 -224.4202 L1537.0186 -224.4202 L1543.0568 -218.3819 L1543.3248 254.8616" clip-path="url(#clipPath2)"/>
      <path d="M1543.3293 262.8616 L1548.3225 250.8588 L1543.3242 253.8616 L1538.3226 250.8645 Z" clip-path="url(#clipPath2)" stroke="none"/>
      <path fill="none" d="M1557.7465 -269.4202 L1558.0149 254.8585" clip-path="url(#clipPath2)"/>
      <path d="M1558.019 262.8585 L1563.0128 250.8559 L1558.0144 253.8585 L1553.0128 250.8611 Z" clip-path="url(#clipPath2)" stroke="none"/>
      <path fill="none" d="M1531.0222 -414.4202 L1567.0186 -414.4202 L1581.0222 -400.4165 L1581.2948 277.891 L1576.3639 277.891" clip-path="url(#clipPath2)"/>
      <path d="M1568.3639 277.891 L1580.3639 282.891 L1577.3639 277.891 L1580.3639 272.891 Z" clip-path="url(#clipPath2)" stroke="none"/>
      <rect x="1532.6822" y="-368.9316" clip-path="url(#clipPath2)" fill="white" width="96.7129" height="18.7012" stroke="none"/>
      <text x="1534.6823" xml:space="preserve" y="-354.8672" clip-path="url(#clipPath2)" stroke="none">le:hasUncertainty</text>
      <path fill="none" d="M454.8482 -239.4499 L454.8482 -269.8482 L467.2695 -282.2695 L724.3342 -282.2695" clip-path="url(#clipPath2)"/>
      <path d="M732.3342 -282.2695 L720.3342 -287.2695 L723.3342 -282.2695 L720.3342 -277.2695 Z" clip-path="url(#clipPath2)" stroke="none"/>
      <rect x="532.7447" y="-291.6201" clip-path="url(#clipPath2)" fill="white" width="126.7363" height="18.7012" stroke="none"/>
      <text x="534.7447" xml:space="preserve" y="-277.5556" clip-path="url(#clipPath2)" stroke="none">le:author, le:contributor</text>
      <path fill="none" d="M1164.14 169.3883 L1164.14 85.579" clip-path="url(#clipPath2)"/>
      <path d="M1164.14 77.579 L1159.14 89.579 L1164.14 86.579 L1169.14 89.579 Z" clip-path="url(#clipPath2)" stroke="none"/>
      <rect x="1148.4979" y="91.3314" clip-path="url(#clipPath2)" fill="white" width="85.3574" height="18.7012" stroke="none"/>
      <text x="1150.4979" xml:space="preserve" y="105.3958" clip-path="url(#clipPath2)" stroke="none">le:inferredFrom</text>
      <path fill="none" d="M1248.8019 199.41 L1248.8019 248.2199" clip-path="url(#clipPath2)"/>
      <path d="M1248.8019 256.2198 L1253.8019 244.2198 L1248.8019 247.2198 L1243.8019 244.2198 Z" clip-path="url(#clipPath2)" stroke="none"/>
      <rect x="1192.7633" y="212.4429" clip-path="url(#clipPath2)" fill="white" width="92.7051" height="18.7012" stroke="none"/>
      <text x="1194.7633" xml:space="preserve" y="226.5073" clip-path="url(#clipPath2)" stroke="none">le:calibratedWith</text>
      <path fill="none" d="M1173.1 199.4064 L1173.1 309.261 L1064.6145 309.261" clip-path="url(#clipPath2)"/>
      <path d="M1056.6145 309.261 L1068.6145 314.261 L1065.6145 309.261 L1068.6145 304.261 Z" clip-path="url(#clipPath2)" stroke="none"/>
      <rect x="1162.765" y="257.1191" clip-path="url(#clipPath2)" fill="white" width="20.6699" height="18.7012" stroke="none"/>
      <text x="1164.765" xml:space="preserve" y="271.1835" clip-path="url(#clipPath2)" stroke="none">isA</text>
      <path fill="none" d="M901.2948 3.2594 L901.2948 -61.5687 L1018.3636 -61.5687 L1018.3636 -201.4202" clip-path="url(#clipPath2)"/>
      <path d="M1018.3636 -209.4202 L1013.3636 -197.4202 L1018.3636 -200.4202 L1023.3636 -197.4202 Z" clip-path="url(#clipPath2)" stroke="none"/>
      <rect x="980.0092" y="-137.6697" clip-path="url(#clipPath2)" fill="white" width="76.709" height="18.7012" stroke="none"/>
      <text x="982.0092" xml:space="preserve" y="-123.6053" clip-path="url(#clipPath2)" stroke="none">le:modeledBy</text>
      <path fill="none" d="M721.2948 10.2911 L755.7089 10.2911 L770.2844 -4.2844 L770.2844 -89.2844 L770.2844 -158.4106 L872.8302 -158.4106 L872.8302 -224.4202 L998.3666 -224.4202" clip-path="url(#clipPath2)"/>
      <path d="M1006.3666 -224.4202 L994.3666 -229.4202 L997.3666 -224.4202 L994.3666 -219.4202 Z" clip-path="url(#clipPath2)" stroke="none"/>
      <rect x="701.9299" y="-56.135" clip-path="url(#clipPath2)" fill="white" width="76.709" height="18.7012" stroke="none"/>
      <text x="703.9299" xml:space="preserve" y="-42.0705" clip-path="url(#clipPath2)" stroke="none">le:modeledBy</text>
      <path fill="none" d="M1456.0222 -399.4202 L1456.0222 -361.0061 L1440.1464 -345.1303 L1067.1464 -345.1303 L1056.0222 -334.0061 L1056.0222 -247.4664" clip-path="url(#clipPath2)"/>
      <path d="M1056.0222 -239.4664 L1061.0222 -251.4664 L1056.0222 -248.4664 L1051.0222 -251.4664 Z" clip-path="url(#clipPath2)" stroke="none"/>
      <rect x="1407.2346" y="-354.4809" clip-path="url(#clipPath2)" fill="white" width="20.6699" height="18.7012" stroke="none"/>
      <text x="1409.2346" xml:space="preserve" y="-340.4164" clip-path="url(#clipPath2)" stroke="none">isA</text>
      <path fill="none" d="M1380.9915 -277.7758 L1128.792 -277.7758 L1117.9238 -266.9077 L1117.9238 -247.447" clip-path="url(#clipPath2)"/>
      <path d="M1117.9238 -239.447 L1122.9238 -251.447 L1117.9238 -248.447 L1112.9238 -251.447 Z" clip-path="url(#clipPath2)" stroke="none"/>
      <rect x="1236.9047" y="-287.1264" clip-path="url(#clipPath2)" fill="white" width="20.6699" height="18.7012" stroke="none"/>
      <text x="1238.9047" xml:space="preserve" y="-273.062" clip-path="url(#clipPath2)" stroke="none">isA</text>
      <path fill="none" d="M1380.9923 -218.4202 L1144.3993 -218.4202" clip-path="url(#clipPath2)"/>
      <path d="M1136.3993 -218.4202 L1148.3993 -213.4202 L1145.3993 -218.4202 L1148.3993 -223.4202 Z" clip-path="url(#clipPath2)" stroke="none"/>
      <rect x="1248.3758" y="-227.7708" clip-path="url(#clipPath2)" fill="white" width="20.6699" height="18.7012" stroke="none"/>
      <text x="1250.3757" xml:space="preserve" y="-213.7063" clip-path="url(#clipPath2)" stroke="none">isA</text>
      <path fill="none" d="M1086.973 -247.4464 L1086.973 -293.1315" clip-path="url(#clipPath2)"/>
      <path d="M1086.973 -239.4464 L1091.973 -251.4464 L1086.973 -248.4464 L1081.973 -251.4464 Z" clip-path="url(#clipPath2)" stroke="none"/>
      <rect x="1076.6381" y="-275.6264" clip-path="url(#clipPath2)" fill="white" width="20.6699" height="18.7012" stroke="none"/>
      <text x="1078.6381" xml:space="preserve" y="-261.562" clip-path="url(#clipPath2)" stroke="none">isA</text>
      <path fill="none" d="M1006.3688 -216.4202 L944.1565 -216.4202 L944.1565 -103.7089 L817.7089 -103.7089 L795.6166 -81.6166 L795.6166 293.6721" clip-path="url(#clipPath2)"/>
      <path d="M795.6166 301.6721 L800.6166 289.6721 L795.6166 292.6721 L790.6166 289.6721 Z" clip-path="url(#clipPath2)" stroke="none"/>
      <rect x="847.2975" y="-112.7923" clip-path="url(#clipPath2)" fill="white" width="86.7285" height="18.7012" stroke="none"/>
      <text x="849.2975" xml:space="preserve" y="-98.7278" clip-path="url(#clipPath2)" stroke="none">le:foundInTable</text>
      <path fill="none" d="M1110.3921 -209.4202 L1110.3921 -199.0466 L1113.5603 -195.8784 L1517.5603 -195.8784 L1528.3671 -185.0716 L1528.6348 254.8637" clip-path="url(#clipPath2)"/>
      <path d="M1528.6396 262.8637 L1533.6323 250.8606 L1528.6342 253.8637 L1523.6323 250.8667 Z" clip-path="url(#clipPath2)" stroke="none"/>
      <rect x="1205.0357" y="-205.229" clip-path="url(#clipPath2)" fill="white" width="96.7129" height="18.7012" stroke="none"/>
      <text x="1207.0356" xml:space="preserve" y="-191.1645" clip-path="url(#clipPath2)" stroke="none">le:hasUncertainty</text>
      <path fill="none" d="M1006.4088 -229.3772 L954.9297 -229.3772 L954.9297 -316.1469 L329.4977 -316.1469 L329.4977 500.8745 L698.5914 500.8745" clip-path="url(#clipPath2)"/>
      <path d="M706.5914 500.8745 L694.5914 495.8745 L697.5914 500.8745 L694.5914 505.8745 Z" clip-path="url(#clipPath2)" stroke="none"/>
      <rect x="523.2694" y="-325.4975" clip-path="url(#clipPath2)" fill="white" width="98.0488" height="18.7012" stroke="none"/>
      <text x="525.2693" xml:space="preserve" y="-311.4331" clip-path="url(#clipPath2)" stroke="none">modelReferences</text>
      <path fill="none" d="M676.2948 99.4209 L676.2948 41.2911" clip-path="url(#clipPath2)"/>
      <path d="M676.2948 33.2911 L671.2948 45.2911 L676.2948 42.2911 L681.2948 45.2911 Z" clip-path="url(#clipPath2)" stroke="none"/>
      <rect x="665.9599" y="57.0216" clip-path="url(#clipPath2)" fill="white" width="20.6699" height="18.7012" stroke="none"/>
      <text x="667.9598" xml:space="preserve" y="71.086" clip-path="url(#clipPath2)" stroke="none">isA</text>
      <path fill="none" d="M701.2948 156.724 L714.7948 156.724 L714.7948 41.2911" clip-path="url(#clipPath2)"/>
      <path d="M714.7948 33.2911 L709.7948 45.2911 L714.7948 42.2911 L719.7948 45.2911 Z" clip-path="url(#clipPath2)" stroke="none"/>
      <rect x="704.4599" y="71.3735" clip-path="url(#clipPath2)" fill="white" width="20.6699" height="18.7012" stroke="none"/>
      <text x="706.4598" xml:space="preserve" y="85.4379" clip-path="url(#clipPath2)" stroke="none">isA</text>
      <path fill="none" d="M624.5897 198.9949 L715.3242 198.9949 L737.713 221.3836 L737.713 293.6797" clip-path="url(#clipPath2)"/>
      <path d="M737.713 301.6797 L742.713 289.6797 L737.713 292.6797 L732.713 289.6797 Z" clip-path="url(#clipPath2)" stroke="none"/>
      <rect x="727.378" y="235.9774" clip-path="url(#clipPath2)" fill="white" width="20.6699" height="18.7012" stroke="none"/>
      <text x="729.378" xml:space="preserve" y="250.0419" clip-path="url(#clipPath2)" stroke="none">isA</text>
      <path fill="none" d="M624.5897 237.0176 L711.347 237.0176 L730.4737 256.1444 L730.4737 293.6744" clip-path="url(#clipPath2)"/>
      <path d="M730.4737 301.6744 L735.4737 289.6744 L730.4737 292.6744 L725.4737 289.6744 Z" clip-path="url(#clipPath2)" stroke="none"/>
      <rect x="629.5896" y="227.667" clip-path="url(#clipPath2)" fill="white" width="20.6699" height="18.7012" stroke="none"/>
      <text x="631.5897" xml:space="preserve" y="241.7315" clip-path="url(#clipPath2)" stroke="none">isA</text>
      <path fill="none" d="M624.5897 279.3163 L716.6457 279.3163 L723.2345 285.9052 L723.2345 293.688" clip-path="url(#clipPath2)"/>
      <path d="M723.2345 301.688 L728.2345 289.688 L723.2345 292.688 L718.2345 289.688 Z" clip-path="url(#clipPath2)" stroke="none"/>
      <rect x="629.5896" y="269.9657" clip-path="url(#clipPath2)" fill="white" width="20.6699" height="18.7012" stroke="none"/>
      <text x="631.5897" xml:space="preserve" y="284.0302" clip-path="url(#clipPath2)" stroke="none">isA</text>
      <path fill="none" d="M624.5897 316.7189 L708.5699 316.7189" clip-path="url(#clipPath2)"/>
      <path d="M716.5699 316.7189 L704.5699 311.7189 L707.5699 316.7189 L704.5699 321.7189 Z" clip-path="url(#clipPath2)" stroke="none"/>
      <rect x="660.2673" y="307.3683" clip-path="url(#clipPath2)" fill="white" width="20.6699" height="18.7012" stroke="none"/>
      <text x="662.2673" xml:space="preserve" y="321.4328" clip-path="url(#clipPath2)" stroke="none">isA</text>
      <path fill="none" d="M624.5897 355.5468 L741.1238 355.5468 L748.1149 348.5558 L748.1149 339.7189" clip-path="url(#clipPath2)"/>
      <path d="M748.1149 331.7189 L743.1149 343.7189 L748.1149 340.7189 L753.1149 343.7189 Z" clip-path="url(#clipPath2)" stroke="none"/>
      <rect x="680.1893" y="346.1962" clip-path="url(#clipPath2)" fill="white" width="20.6699" height="18.7012" stroke="none"/>
      <text x="682.1893" xml:space="preserve" y="360.2607" clip-path="url(#clipPath2)" stroke="none">isA</text>
      <path fill="none" d="M624.5897 394.3747 L787.296 394.3747 L805.1149 376.5558 L805.1149 339.7189" clip-path="url(#clipPath2)"/>
      <path d="M805.1149 331.7189 L800.1149 343.7189 L805.1149 340.7189 L810.1149 343.7189 Z" clip-path="url(#clipPath2)" stroke="none"/>
      <rect x="703.2753" y="385.0241" clip-path="url(#clipPath2)" fill="white" width="20.6699" height="18.7012" stroke="none"/>
      <text x="705.2753" xml:space="preserve" y="399.0885" clip-path="url(#clipPath2)" stroke="none">isA</text>
      <path fill="none" d="M1064.3779 -209.4202 L1064.3779 -179.0608 L1076.1022 -167.3365 L1146.7838 -167.3365" clip-path="url(#clipPath2)"/>
      <path d="M1154.7838 -167.3365 L1142.7838 -172.3365 L1145.7838 -167.3365 L1142.7838 -162.3365 Z" clip-path="url(#clipPath2)" stroke="none"/>
      <rect x="1073.9358" y="-176.6871" clip-path="url(#clipPath2)" fill="white" width="52.0352" height="18.7012" stroke="none"/>
      <text x="1075.9358" xml:space="preserve" y="-162.6227" clip-path="url(#clipPath2)" stroke="none">hasCode</text>
      <path fill="none" d="M1028.9443 -367.1291 L1028.9443 -247.4514" clip-path="url(#clipPath2)"/>
      <path d="M1028.9443 -239.4514 L1033.9443 -251.4514 L1028.9443 -248.4514 L1023.9443 -251.4514 Z" clip-path="url(#clipPath2)" stroke="none"/>
      <rect x="1018.6094" y="-312.6252" clip-path="url(#clipPath2)" fill="white" width="20.6699" height="18.7012" stroke="none"/>
      <text x="1020.6094" xml:space="preserve" y="-298.5608" clip-path="url(#clipPath2)" stroke="none">isA</text>
      <path fill="none" d="M1010.9809 -424.4202 L1000.4363 -424.4202 L996.3992 -420.3831 L996.3992 -232.4202 L998.3602 -232.4202" clip-path="url(#clipPath2)"/>
      <path d="M1006.3602 -232.4202 L994.3602 -237.4202 L997.3602 -232.4202 L994.3602 -227.4202 Z" clip-path="url(#clipPath2)" stroke="none"/>
      <rect x="986.0643" y="-335.7522" clip-path="url(#clipPath2)" fill="white" width="20.6699" height="18.7012" stroke="none"/>
      <text x="988.0643" xml:space="preserve" y="-321.6878" clip-path="url(#clipPath2)" stroke="none">isA</text>
      <path fill="none" d="M901.2948 61.8227 L901.2948 41.2911" clip-path="url(#clipPath2)"/>
      <path d="M901.2948 33.2911 L896.2948 45.2911 L901.2948 42.2911 L906.2948 45.2911 Z" clip-path="url(#clipPath2)" stroke="none"/>
      <text x="876.165" xml:space="preserve" y="53.8263" clip-path="url(#clipPath2)" stroke="none">isA</text>
      <path fill="none" d="M832.5897 114.4532 L822.5 114.4532 L822.5 26 L848.2729 26" clip-path="url(#clipPath2)"/>
      <path d="M856.2729 26 L844.2729 21 L847.2729 26 L844.2729 31 Z" clip-path="url(#clipPath2)" stroke="none"/>
      <rect x="817.2099" y="75.1026" clip-path="url(#clipPath2)" fill="white" width="20.6699" height="18.7012" stroke="none"/>
      <text x="819.2098" xml:space="preserve" y="89.1671" clip-path="url(#clipPath2)" stroke="none">isA</text>
      <path fill="none" d="M1360.7322 -118.7742 L1292.8827 -118.7742 L1288.3894 -115.0902 L1288.3894 -110.483" clip-path="url(#clipPath2)"/>
      <path d="M1288.3894 -102.483 L1293.3894 -114.483 L1288.3894 -111.483 L1283.3894 -114.483 Z" clip-path="url(#clipPath2)" stroke="none"/>
      <rect x="1308.8137" y="-128.1248" clip-path="url(#clipPath2)" fill="white" width="20.6699" height="18.7012" stroke="none"/>
      <text x="1310.8137" xml:space="preserve" y="-114.0604" clip-path="url(#clipPath2)" stroke="none">isA</text>
      <path fill="none" d="M1360.7427 -51.9135 L1287.9657 -51.9135 L1281.5736 -57.6807 L1281.5736 -64.489" clip-path="url(#clipPath2)"/>
      <path d="M1281.5736 -72.489 L1276.5736 -60.489 L1281.5736 -63.489 L1286.5736 -60.489 Z" clip-path="url(#clipPath2)" stroke="none"/>
      <rect x="1306.3552" y="-61.2641" clip-path="url(#clipPath2)" fill="white" width="20.6699" height="18.7012" stroke="none"/>
      <text x="1308.3552" xml:space="preserve" y="-47.1996" clip-path="url(#clipPath2)" stroke="none">isA</text>
      <path fill="none" d="M931.0552 33.2996 L931.0552 147.3988 L944.5753 147.3988" clip-path="url(#clipPath2)"/>
      <path d="M952.5753 147.3988 L940.5753 142.3988 L943.5753 147.3988 L940.5753 152.3988 Z" clip-path="url(#clipPath2)" stroke="none"/>
      <rect x="912.3817" y="40.4213" clip-path="url(#clipPath2)" fill="white" width="131.3945" height="18.7012" stroke="none"/>
      <text x="914.3817" xml:space="preserve" y="54.4858" clip-path="url(#clipPath2)" stroke="none">le:hasProxyObservation</text>
      <path fill="none" d="M1082.7333 77.611 L1082.7333 133.7308" clip-path="url(#clipPath2)"/>
      <path d="M1082.7333 141.7308 L1087.7333 129.7308 L1082.7333 132.7308 L1077.7333 129.7308 Z" clip-path="url(#clipPath2)" stroke="none"/>
      <rect x="935.3743" y="117.2213" clip-path="url(#clipPath2)" fill="white" width="170.7461" height="18.7012" stroke="none"/>
      <text x="937.3743" xml:space="preserve" y="131.2858" clip-path="url(#clipPath2)" stroke="none">le:onProxyObservationProperty</text>
    </g>
  </g>
</svg>
