<?xml version="1.0" encoding="UTF-8"?><svg xmlns="http://www.w3.org/2000/svg" xmlns:xlink="http://www.w3.org/1999/xlink" fill-opacity="1" color-rendering="auto" color-interpolation="auto" text-rendering="auto" stroke="black" stroke-linecap="square" width="1403" stroke-miterlimit="10" shape-rendering="auto" stroke-opacity="1" fill="black" stroke-dasharray="none" font-weight="normal" stroke-width="1" height="962" font-family="'Dialog'" font-style="normal" stroke-linejoin="miter" font-size="12" stroke-dashoffset="0" image-rendering="auto">
  <!--Generated by ySVG 2.5-->
  <defs id="genericDefs"/>
  <g>
    <defs id="defs1">
      <clipPath clipPathUnits="userSpaceOnUse" id="clipPath1">
        <path d="M0 0 L1403 0 L1403 962 L0 962 L0 0 Z"/>
      </clipPath>
      <clipPath clipPathUnits="userSpaceOnUse" id="clipPath2">
        <path d="M55 69 L1458 69 L1458 1031 L55 1031 L55 69 Z"/>
      </clipPath>
    </defs>
    <g fill="white" text-rendering="geometricPrecision" shape-rendering="geometricPrecision" transform="translate(-55,-69)" stroke="white">
      <rect x="55" width="1403" height="962" y="69" clip-path="url(#clipPath2)" stroke="none"/>
    </g>
    <g text-rendering="geometricPrecision" stroke-miterlimit="1.45" shape-rendering="geometricPrecision" font-family="sans-serif" transform="matrix(1,0,0,1,-55,-69)" stroke-linecap="butt">
      <text x="381.7393" xml:space="preserve" y="494.8345" clip-path="url(#clipPath2)" stroke="none">"mmol/mol"</text>
      <rect fill="none" x="351" width="122" height="30" y="475.1206" clip-path="url(#clipPath2)"/>
      <text x="297.3281" xml:space="preserve" y="387.8345" clip-path="url(#clipPath2)" stroke="none">Mg/Ca</text>
      <rect fill="none" x="254" width="122" height="30" y="368.1206" clip-path="url(#clipPath2)"/>
      <text x="91.6338" xml:space="preserve" y="340.8345" clip-path="url(#clipPath2)" stroke="none">LiPD-087654_MgCa</text>
      <rect fill="none" x="85" width="122" height="30" y="321.1206" clip-path="url(#clipPath2)"/>
      <text x="283.3057" xml:space="preserve" y="340.8345" clip-path="url(#clipPath2)" stroke="none">MeasuredVariable</text>
      <rect fill="none" x="254" width="156" height="30" y="321.1206" clip-path="url(#clipPath2)"/>
      <text x="261.1152" xml:space="preserve" y="623.8345" clip-path="url(#clipPath2)" stroke="none">LiPD-087654_MgCa_Calibration</text>
      <rect fill="none" x="254" width="187" height="30" y="604.1206" clip-path="url(#clipPath2)"/>
      <text x="544.9941" xml:space="preserve" y="777.8345" clip-path="url(#clipPath2)" stroke="none">ICP-AES</text>
      <rect fill="none" x="508" width="122" height="30" y="758.1206" clip-path="url(#clipPath2)"/>
      <text x="258.2861" xml:space="preserve" y="777.8345" clip-path="url(#clipPath2)" stroke="none">LiPD-087654_MgCa_instrument</text>
      <rect fill="none" x="254" width="180" height="30" y="758.1206" clip-path="url(#clipPath2)"/>
      <text x="380.1875" xml:space="preserve" y="884.8345" clip-path="url(#clipPath2)" stroke="none">standard solution made from solid Mg and reagent grade CaCO3 in an elemental ratio of 5.63 mmol/mol</text>
      <rect fill="none" x="376" width="560" height="30" y="865.1206" clip-path="url(#clipPath2)"/>
      <text x="256.3008" xml:space="preserve" y="539.8345" clip-path="url(#clipPath2)" stroke="none">LiPD-076534_MgCaU</text>
      <rect fill="none" x="254" width="122" height="30" y="520.1206" clip-path="url(#clipPath2)"/>
      <text x="303.9805" xml:space="preserve" y="716.4839" clip-path="url(#clipPath2)" stroke="none">Sediment Core</text>
      <text x="304.6602" xml:space="preserve" y="731.1851" clip-path="url(#clipPath2)" stroke="none">(ProxyArchive)</text>
      <rect fill="none" x="283" width="122" height="30" y="704.1206" clip-path="url(#clipPath2)"/>
      <text x="283.6494" xml:space="preserve" y="670.8345" clip-path="url(#clipPath2)" stroke="none">MD98-2181</text>
      <rect fill="none" x="254" width="122" height="30" y="651.1206" clip-path="url(#clipPath2)"/>
      <text x="396.3252" xml:space="preserve" y="434.8345" clip-path="url(#clipPath2)" stroke="none">[5.23 5.33 5.29 5.56 5.12 5.23 5.24 5.78]</text>
      <rect fill="none" x="351" width="307.5" height="30" y="415.1206" clip-path="url(#clipPath2)"/>
      <text x="270.7754" xml:space="preserve" y="831.8345" clip-path="url(#clipPath2)" stroke="none">LiPD-087654_MgCa_interpretation</text>
      <rect fill="none" x="254" width="219" height="30" y="812.1206" clip-path="url(#clipPath2)"/>
      <text x="614.7705" xml:space="preserve" y="531.4595" clip-path="url(#clipPath2)" stroke="none">[0.2 0.2 0.2 0.2 0.2 0.2 0.2 0.2]</text>
      <rect fill="none" x="603" width="187" height="30" y="511.7456" clip-path="url(#clipPath2)"/>
      <text x="633.7393" xml:space="preserve" y="573.8345" clip-path="url(#clipPath2)" stroke="none">"mmol/mol"</text>
      <rect fill="none" x="603" width="122" height="30" y="554.1206" clip-path="url(#clipPath2)"/>
      <text x="522.6523" xml:space="preserve" y="380.4839" clip-path="url(#clipPath2)" stroke="none">TraceElement</text>
      <text x="508.3174" xml:space="preserve" y="395.1851" clip-path="url(#clipPath2)" stroke="none">(ProxyObservation)</text>
      <rect fill="none" x="499" width="122" height="30" y="368.1206" clip-path="url(#clipPath2)"/>
      <text x="507.8594" xml:space="preserve" y="622.3345" clip-path="url(#clipPath2)" stroke="none">"Uncertainty determined on replicat..."</text>
      <rect fill="none" x="499" width="219" height="30" y="602.6206" clip-path="url(#clipPath2)"/>
      <text x="513.3066" xml:space="preserve" y="831.8345" clip-path="url(#clipPath2)" stroke="none">ClimateInterpretation</text>
      <rect fill="none" x="508" width="122" height="30" y="812.1206" clip-path="url(#clipPath2)"/>
      <text x="292.9121" xml:space="preserve" y="245.8345" clip-path="url(#clipPath2)" stroke="none">WonderfulCore.Khider.2016.Paleo1.MeasurementTable1.csv</text>
      <rect fill="none" x="277" width="356" height="30" y="226.1206" clip-path="url(#clipPath2)"/>
      <text x="871.9736" xml:space="preserve" y="347.7051" clip-path="url(#clipPath2)" stroke="none">LiPD-053923_T</text>
      <rect fill="none" x="853" width="122" height="30" y="327.9912" clip-path="url(#clipPath2)"/>
      <text x="1041.3105" xml:space="preserve" y="347.7051" clip-path="url(#clipPath2)" stroke="none">Inferredvariable</text>
      <rect fill="none" x="1022" width="122" height="30" y="327.9912" clip-path="url(#clipPath2)"/>
      <text x="1031.6367" xml:space="preserve" y="546.7051" clip-path="url(#clipPath2)" stroke="none">LiPD-8723456_TU]</text>
      <rect fill="none" x="1022" width="122" height="30" y="526.9912" clip-path="url(#clipPath2)"/>
      <text x="1050.7812" xml:space="preserve" y="651.7051" clip-path="url(#clipPath2)" stroke="none">LiPD-053923_T_Interpretation</text>
      <rect fill="none" x="1022" width="219" height="30" y="631.9912" clip-path="url(#clipPath2)"/>
      <text x="1115.5752" xml:space="preserve" y="424.2051" clip-path="url(#clipPath2)" stroke="none">[29.1 29.3 29.3 29.8 28.9 29.1 29.2 30.2]</text>
      <rect fill="none" x="1070.25" width="307.5" height="30" y="404.4912" clip-path="url(#clipPath2)"/>
      <text x="1298.1465" xml:space="preserve" y="491.4551" clip-path="url(#clipPath2)" stroke="none">"degC"</text>
      <rect fill="none" x="1255.75" width="122" height="30" y="471.7412" clip-path="url(#clipPath2)"/>
      <text x="1267.5205" xml:space="preserve" y="541.2051" clip-path="url(#clipPath2)" stroke="none">[1.2 1.2 1.2 1.2 1.2 1.2 1.2 1.2]</text>
      <rect fill="none" x="1255.75" width="187" height="30" y="521.4912" clip-path="url(#clipPath2)"/>
      <text x="1298.1465" xml:space="preserve" y="580.7051" clip-path="url(#clipPath2)" stroke="none">"degC"</text>
      <rect fill="none" x="1255.75" width="122" height="30" y="560.9912" clip-path="url(#clipPath2)"/>
      <text x="1281.3066" xml:space="preserve" y="651.7051" clip-path="url(#clipPath2)" stroke="none">ClimateInterpretation</text>
      <rect fill="none" x="1276" width="122" height="30" y="631.9912" clip-path="url(#clipPath2)"/>
      <text x="258.2871" xml:space="preserve" y="968.8345" clip-path="url(#clipPath2)" stroke="none">LiPD-0989456_depth</text>
      <rect fill="none" x="254" width="122" height="30" y="949.1206" clip-path="url(#clipPath2)"/>
      <text x="516.3018" xml:space="preserve" y="956.8345" clip-path="url(#clipPath2)" stroke="none">[2 3 4 5 6 7 8 9]</text>
      <rect fill="none" x="480" width="156" height="30" y="937.1206" clip-path="url(#clipPath2)"/>
      <text x="550.002" xml:space="preserve" y="1004.8345" clip-path="url(#clipPath2)" stroke="none">cm</text>
      <rect fill="none" x="480" width="156" height="30" y="985.1206" clip-path="url(#clipPath2)"/>
      <text x="707.1562" xml:space="preserve" y="663.4839" clip-path="url(#clipPath2)" stroke="none">Foraminifera </text>
      <text x="704.1562" xml:space="preserve" y="678.1851" clip-path="url(#clipPath2)" stroke="none">(ProxySensor)</text>
      <rect fill="none" x="681.5" width="122" height="30" y="651.1206" clip-path="url(#clipPath2)"/>
      <text x="502.6338" xml:space="preserve" y="671.9639" clip-path="url(#clipPath2)" stroke="none">Globigerinoides ruber</text>
      <rect fill="none" x="499" width="122" height="30" y="652.25" clip-path="url(#clipPath2)"/>
      <text x="771.5674" xml:space="preserve" y="245.8345" clip-path="url(#clipPath2)" stroke="none">DataTable</text>
      <rect fill="none" x="738.25" width="122" height="30" y="226.1206" clip-path="url(#clipPath2)"/>
      <text x="347.6006" xml:space="preserve" y="185.8345" clip-path="url(#clipPath2)" stroke="none">WonderfulCore.Khider.2016.PaleoData1</text>
      <rect fill="none" x="337.125" width="235.75" height="30" y="166.1206" clip-path="url(#clipPath2)"/>
      <text x="683.7305" xml:space="preserve" y="185.8345" clip-path="url(#clipPath2)" stroke="none">PaleoData</text>
      <rect fill="none" x="650.75" width="122" height="30" y="166.1206" clip-path="url(#clipPath2)"/>
      <text x="121.999" xml:space="preserve" y="103.8345" clip-path="url(#clipPath2)" stroke="none">WonderfulCore.Khider.2016</text>
      <rect fill="none" x="78.5" width="235.75" height="30" y="84.1206" clip-path="url(#clipPath2)"/>
      <text x="418.0723" xml:space="preserve" y="103.8345" clip-path="url(#clipPath2)" stroke="none">Dataset</text>
      <rect fill="none" x="377.75" width="122" height="30" y="84.1206" clip-path="url(#clipPath2)"/>
      <text x="1132.6725" xml:space="preserve" y="969.8345" clip-path="url(#clipPath2)" stroke="none">Instance of</text>
      <text x="1131.0065" xml:space="preserve" y="1004.8345" clip-path="url(#clipPath2)" stroke="none">Object property</text>
      <text x="395.7236" xml:space="preserve" y="144.8345" clip-path="url(#clipPath2)" stroke="none">Deborah Khider</text>
      <rect fill="none" x="344.25" width="187" height="30" y="125.1206" clip-path="url(#clipPath2)"/>
      <text x="1025.3035" xml:space="preserve" y="934.8345" clip-path="url(#clipPath2)" stroke="none">Legend</text>
      <rect fill="none" x="1013.625" width="235.75" height="100" y="915.1206" clip-path="url(#clipPath2)"/>
      <path fill="none" d="M146 351.1206 L146 383.1206 L245.9783 383.1206" clip-path="url(#clipPath2)"/>
      <path d="M253.9783 383.1206 L241.9783 378.1206 L244.9783 383.1206 L241.9783 388.1206 Z" clip-path="url(#clipPath2)" stroke="none"/>
      <text x="149.6416" xml:space="preserve" y="378.2109" clip-path="url(#clipPath2)" stroke="none">observedProperty</text>
      <path fill="none" d="M146 351.1206 L146 490.1206 L343 490.1206" clip-path="url(#clipPath2)"/>
      <path d="M351 490.1206 L339 485.1206 L342 490.1206 L339 495.1206 Z" clip-path="url(#clipPath2)" stroke="none"/>
      <rect x="200.5438" y="480.77" clip-path="url(#clipPath2)" fill="white" width="50.6875" height="18.7012" stroke="none"/>
      <text x="202.5438" xml:space="preserve" y="494.8345" clip-path="url(#clipPath2)" stroke="none">hasUnits</text>
      <path fill="none" d="M207 336.1206 L239 336.1206" clip-path="url(#clipPath2)"/>
      <path fill="white" d="M254 336.1206 L238 330.1206 L238 342.1206 Z" clip-path="url(#clipPath2)" stroke="none"/>
      <path fill="none" d="M254 336.1206 L238 330.1206 L238 342.1206 Z" clip-path="url(#clipPath2)"/>
      <path fill="none" d="M146 351.1206 L146 619.1206 L246 619.1206" clip-path="url(#clipPath2)"/>
      <path d="M254 619.1206 L242 614.1206 L245 619.1206 L242 624.1206 Z" clip-path="url(#clipPath2)" stroke="none"/>
      <text x="154.9863" xml:space="preserve" y="605.9639" clip-path="url(#clipPath2)" stroke="none">calibratedFrom</text>
      <path fill="none" d="M146 351.1206 L146 773.1206 L246 773.1206" clip-path="url(#clipPath2)"/>
      <path d="M254 773.1206 L242 768.1206 L245 773.1206 L242 778.1206 Z" clip-path="url(#clipPath2)" stroke="none"/>
      <text x="164.3174" xml:space="preserve" y="768.9639" clip-path="url(#clipPath2)" stroke="none">measuredBy</text>
      <path fill="none" d="M434 773.1206 L493 773.1206" clip-path="url(#clipPath2)"/>
      <path fill="white" d="M508 773.1206 L492 767.1206 L492 779.1206 Z" clip-path="url(#clipPath2)" stroke="none"/>
      <path fill="none" d="M508 773.1206 L492 767.1206 L492 779.1206 Z" clip-path="url(#clipPath2)"/>
      <path fill="none" d="M146 351.1206 L146 880.1206 L368 880.1206" clip-path="url(#clipPath2)"/>
      <path d="M376 880.1206 L364 875.1206 L367 880.1206 L364 885.1206 Z" clip-path="url(#clipPath2)" stroke="none"/>
      <text x="175.6289" xml:space="preserve" y="871.9639" clip-path="url(#clipPath2)" stroke="none">method (measurementMethod)</text>
      <path fill="none" d="M146 351.1206 L146 535.1206 L246 535.1206" clip-path="url(#clipPath2)"/>
      <path d="M254 535.1206 L242 530.1206 L245 535.1206 L242 540.1206 Z" clip-path="url(#clipPath2)" stroke="none"/>
      <text x="155.9805" xml:space="preserve" y="525.8345" clip-path="url(#clipPath2)" stroke="none">hasUncertainty</text>
      <path fill="none" d="M146 351.1206 L146 666.1206 L246 666.1206" clip-path="url(#clipPath2)"/>
      <path d="M254 666.1206 L242 661.1206 L245 666.1206 L242 671.1206 Z" clip-path="url(#clipPath2)" stroke="none"/>
      <text x="164.3154" xml:space="preserve" y="660.9639" clip-path="url(#clipPath2)" stroke="none">measuredOn</text>
      <path fill="none" d="M344 681.1409 L344 689.1206" clip-path="url(#clipPath2)"/>
      <path fill="white" d="M344 704.1206 L350 688.1206 L338 688.1206 Z" clip-path="url(#clipPath2)" stroke="none"/>
      <path fill="none" d="M344 704.1206 L350 688.1206 L338 688.1206 Z" clip-path="url(#clipPath2)"/>
      <path fill="none" d="M146 351.1206 L146 430.1206 L343 430.1206" clip-path="url(#clipPath2)"/>
      <path d="M351 430.1206 L339 425.1206 L342 430.1206 L339 435.1206 Z" clip-path="url(#clipPath2)" stroke="none"/>
      <rect x="256.9805" y="421.5661" clip-path="url(#clipPath2)" fill="white" width="54.0391" height="18.7012" stroke="none"/>
      <text x="258.9805" xml:space="preserve" y="435.6305" clip-path="url(#clipPath2)" stroke="none">hasValue</text>
      <path fill="none" d="M146 351.1206 L146 827.1206 L246 827.1206" clip-path="url(#clipPath2)"/>
      <path d="M254 827.1206 L242 822.1206 L245 827.1206 L242 832.1206 Z" clip-path="url(#clipPath2)" stroke="none"/>
      <text x="159.3135" xml:space="preserve" y="807.9639" clip-path="url(#clipPath2)" stroke="none">interpretedAs</text>
      <path fill="none" d="M375.9927 527.2204 L595 526.8959" clip-path="url(#clipPath2)"/>
      <path d="M603 526.8841 L590.9926 521.9019 L594 526.8974 L591.0074 531.9019 Z" clip-path="url(#clipPath2)" stroke="none"/>
      <rect x="462.4805" y="517.7017" clip-path="url(#clipPath2)" fill="white" width="54.0391" height="18.7012" stroke="none"/>
      <text x="464.4805" xml:space="preserve" y="531.7661" clip-path="url(#clipPath2)" stroke="none">hasValue</text>
      <path fill="none" d="M376.0322 538.7819 L595.044 561.8558" clip-path="url(#clipPath2)"/>
      <path d="M603 562.694 L591.5899 556.4642 L594.0496 561.751 L590.5422 566.4092 Z" clip-path="url(#clipPath2)" stroke="none"/>
      <rect x="464.1562" y="541.3857" clip-path="url(#clipPath2)" fill="white" width="50.6875" height="18.7012" stroke="none"/>
      <text x="466.1562" xml:space="preserve" y="555.4501" clip-path="url(#clipPath2)" stroke="none">hasUnits</text>
      <path fill="none" d="M376 383.1206 L484 383.1206" clip-path="url(#clipPath2)"/>
      <path fill="white" d="M499 383.1206 L483 377.1206 L483 389.1206 Z" clip-path="url(#clipPath2)" stroke="none"/>
      <path fill="none" d="M499 383.1206 L483 377.1206 L483 389.1206 Z" clip-path="url(#clipPath2)"/>
      <path fill="none" d="M368.3636 550.1206 L547.4348 600.4558" clip-path="url(#clipPath2)"/>
      <path d="M555.1364 602.6206 L544.9371 594.5599 L546.4721 600.1852 L542.2311 604.1869 Z" clip-path="url(#clipPath2)" stroke="none"/>
      <rect x="428.7022" y="565.5108" clip-path="url(#clipPath2)" fill="white" width="55.3574" height="18.7012" stroke="none"/>
      <text x="430.7022" xml:space="preserve" y="579.5753" clip-path="url(#clipPath2)" stroke="none">dscription</text>
      <path fill="none" d="M473 827.1206 L493 827.1206" clip-path="url(#clipPath2)"/>
      <path fill="white" d="M508 827.1206 L492 821.1206 L492 833.1206 Z" clip-path="url(#clipPath2)" stroke="none"/>
      <path fill="none" d="M508 827.1206 L492 821.1206 L492 833.1206 Z" clip-path="url(#clipPath2)"/>
      <path fill="none" d="M303.8975 256.1321 L182.7466 317.5053" clip-path="url(#clipPath2)"/>
      <path d="M175.61 321.1206 L188.5744 320.158 L183.6386 317.0534 L184.0553 311.2374 Z" clip-path="url(#clipPath2)" stroke="none"/>
      <rect x="193.7378" y="279.27" clip-path="url(#clipPath2)" fill="white" width="92.0547" height="18.7012" stroke="none"/>
      <text x="195.7378" xml:space="preserve" y="293.3345" clip-path="url(#clipPath2)" stroke="none">includesVariable</text>
      <path fill="none" d="M522.5858 256.1206 L845.1901 327.7195" clip-path="url(#clipPath2)"/>
      <path d="M853 329.4529 L842.3684 321.9716 L844.2138 327.5028 L840.2017 331.7341 Z" clip-path="url(#clipPath2)" stroke="none"/>
      <rect x="672.1666" y="290.1834" clip-path="url(#clipPath2)" fill="white" width="92.0547" height="18.7012" stroke="none"/>
      <text x="674.1666" xml:space="preserve" y="304.2478" clip-path="url(#clipPath2)" stroke="none">includesVariable</text>
      <path fill="none" d="M853 342.9912 L457 342.9912 L457 300.9167 L312 300.9167 L214.826 321.5246" clip-path="url(#clipPath2)"/>
      <path d="M207 323.1842 L219.7762 325.586 L215.8042 321.3171 L217.7017 315.8035 Z" clip-path="url(#clipPath2)" stroke="none"/>
      <rect x="616.9813" y="333.6406" clip-path="url(#clipPath2)" fill="white" width="72.6836" height="18.7012" stroke="none"/>
      <text x="618.9813" xml:space="preserve" y="347.7051" clip-path="url(#clipPath2)" stroke="none">inferredFrom</text>
      <path fill="none" d="M886.7435 357.9912 L836 385.9167 L836 640.9167 L467 640.9167 L467 619.1206 L449 619.1206" clip-path="url(#clipPath2)"/>
      <path d="M441 619.1206 L453 624.1206 L450 619.1206 L453 614.1206 Z" clip-path="url(#clipPath2)" stroke="none"/>
      <rect x="795.9844" y="531.3019" clip-path="url(#clipPath2)" fill="white" width="80.0312" height="18.7012" stroke="none"/>
      <text x="797.9844" xml:space="preserve" y="545.3663" clip-path="url(#clipPath2)" stroke="none">calibratedWith</text>
      <path fill="none" d="M975 342.9912 L1007 342.9912" clip-path="url(#clipPath2)"/>
      <path fill="white" d="M1022 342.9912 L1006 336.9912 L1006 348.9912 Z" clip-path="url(#clipPath2)" stroke="none"/>
      <path fill="none" d="M1022 342.9912 L1006 336.9912 L1006 348.9912 Z" clip-path="url(#clipPath2)"/>
      <path fill="none" d="M914 357.9912 L914 541.9912 L1014 541.9912" clip-path="url(#clipPath2)"/>
      <path d="M1022 541.9912 L1010 536.9912 L1013 541.9912 L1010 546.9912 Z" clip-path="url(#clipPath2)" stroke="none"/>
      <text x="923.9805" xml:space="preserve" y="532.7051" clip-path="url(#clipPath2)" stroke="none">hasUncertainty</text>
      <path fill="none" d="M914 357.9912 L914 646.9912 L1014 646.9912" clip-path="url(#clipPath2)"/>
      <path d="M1022 646.9912 L1010 641.9912 L1013 646.9912 L1010 651.9912 Z" clip-path="url(#clipPath2)" stroke="none"/>
      <text x="927.3135" xml:space="preserve" y="636.6306" clip-path="url(#clipPath2)" stroke="none">interpretedAs</text>
      <path fill="none" d="M914 357.9912 L914 419.4912 L1062.25 419.4912" clip-path="url(#clipPath2)"/>
      <path d="M1070.25 419.4912 L1058.25 414.4912 L1061.25 419.4912 L1058.25 424.4912 Z" clip-path="url(#clipPath2)" stroke="none"/>
      <text x="946.7253" xml:space="preserve" y="415.3359" clip-path="url(#clipPath2)" stroke="none">hasValue</text>
      <path fill="none" d="M914 357.9912 L914 486.7412 L1247.75 486.7412" clip-path="url(#clipPath2)"/>
      <path d="M1255.75 486.7412 L1243.75 481.7412 L1246.75 486.7412 L1243.75 491.7412 Z" clip-path="url(#clipPath2)" stroke="none"/>
      <rect x="980.0048" y="477.3906" clip-path="url(#clipPath2)" fill="white" width="50.6875" height="18.7012" stroke="none"/>
      <text x="982.0048" xml:space="preserve" y="491.4551" clip-path="url(#clipPath2)" stroke="none">hasUnits</text>
      <path fill="none" d="M1143.9868 545.191 L1247.7572 540.7928" clip-path="url(#clipPath2)"/>
      <path d="M1255.75 540.454 L1243.5491 535.9667 L1246.7581 540.8352 L1243.9725 545.9578 Z" clip-path="url(#clipPath2)" stroke="none"/>
      <rect x="1172.8555" y="533.4717" clip-path="url(#clipPath2)" fill="white" width="54.0391" height="18.7012" stroke="none"/>
      <text x="1174.8555" xml:space="preserve" y="547.5361" clip-path="url(#clipPath2)" stroke="none">hasValue</text>
      <path fill="none" d="M1144.0205 547.7852 L1247.8546 564.7408" clip-path="url(#clipPath2)"/>
      <path d="M1255.75 566.0302 L1244.7126 559.1616 L1246.8677 564.5797 L1243.1011 569.0308 Z" clip-path="url(#clipPath2)" stroke="none"/>
      <text x="1158.9419" xml:space="preserve" y="589.145" clip-path="url(#clipPath2)" stroke="none">hasUnits</text>
      <path fill="none" d="M1241 646.9912 L1261 646.9912" clip-path="url(#clipPath2)"/>
      <path fill="white" d="M1276 646.9912 L1260 640.9912 L1260 652.9912 Z" clip-path="url(#clipPath2)" stroke="none"/>
      <path fill="none" d="M1276 646.9912 L1260 640.9912 L1260 652.9912 Z" clip-path="url(#clipPath2)"/>
      <path fill="none" d="M146 351.1206 L146 964.1206 L246 964.1206" clip-path="url(#clipPath2)"/>
      <path d="M254 964.1206 L242 959.1206 L245 964.1206 L242 969.1206 Z" clip-path="url(#clipPath2)" stroke="none"/>
      <text x="158.6426" xml:space="preserve" y="959.6306" clip-path="url(#clipPath2)" stroke="none">takenAtDepth</text>
      <path fill="none" d="M277 241.1206 L70 241.1206 L70 979.1206 L246.6667 979.1206" clip-path="url(#clipPath2)"/>
      <path d="M254.6667 979.1206 L242.6667 974.1206 L245.6667 979.1206 L242.6667 984.1206 Z" clip-path="url(#clipPath2)" stroke="none"/>
      <rect x="130.4727" y="231.77" clip-path="url(#clipPath2)" fill="white" width="92.0547" height="18.7012" stroke="none"/>
      <text x="132.4727" xml:space="preserve" y="245.8345" clip-path="url(#clipPath2)" stroke="none">includesVariable</text>
      <path fill="none" d="M914 357.9912 L914 684.25 L984 684.25 L984 918.25 L315 918.25 L315 941.1206" clip-path="url(#clipPath2)"/>
      <path d="M315 949.1206 L320 937.1206 L315 940.1206 L310 937.1206 Z" clip-path="url(#clipPath2)" stroke="none"/>
      <rect x="797.8824" y="908.8994" clip-path="url(#clipPath2)" fill="white" width="76.7148" height="18.7012" stroke="none"/>
      <text x="799.8824" xml:space="preserve" y="922.9639" clip-path="url(#clipPath2)" stroke="none">takenAtDepth</text>
      <path fill="none" d="M375.9908 960.9662 L472.0094 956.2997" clip-path="url(#clipPath2)"/>
      <path d="M480 955.9114 L467.7714 951.4998 L471.0106 956.3483 L468.2569 961.488 Z" clip-path="url(#clipPath2)" stroke="none"/>
      <rect x="400.9805" y="949.088" clip-path="url(#clipPath2)" fill="white" width="54.0391" height="18.7012" stroke="none"/>
      <text x="402.9805" xml:space="preserve" y="963.1525" clip-path="url(#clipPath2)" stroke="none">hasValue</text>
      <path fill="none" d="M375.9854 976.6857 L472.0655 989.0563" clip-path="url(#clipPath2)"/>
      <path d="M480 990.0779 L468.7367 983.5865 L471.0737 988.9286 L467.4598 993.5046 Z" clip-path="url(#clipPath2)" stroke="none"/>
      <rect x="402.6562" y="974.0322" clip-path="url(#clipPath2)" fill="white" width="50.6875" height="18.7012" stroke="none"/>
      <text x="404.6562" xml:space="preserve" y="988.0966" clip-path="url(#clipPath2)" stroke="none">hasUnits</text>
      <path fill="none" d="M376.0005 667.25 L491 667.25" clip-path="url(#clipPath2)"/>
      <path d="M499 667.25 L487 662.25 L490 667.25 L487 672.25 Z" clip-path="url(#clipPath2)" stroke="none"/>
      <text x="409.5273" xml:space="preserve" y="662.3458" clip-path="url(#clipPath2)" stroke="none">sensingWith</text>
      <path fill="none" d="M621 666.8725 L666.5003 666.5909" clip-path="url(#clipPath2)"/>
      <path fill="white" d="M681.5 666.4981 L665.4632 660.5972 L665.5374 672.597 Z" clip-path="url(#clipPath2)" stroke="none"/>
      <path fill="none" d="M681.5 666.4981 L665.4632 660.5972 L665.5374 672.597 Z" clip-path="url(#clipPath2)"/>
      <path fill="none" d="M633 241.1206 L723.25 241.1206" clip-path="url(#clipPath2)"/>
      <path fill="white" d="M738.25 241.1206 L722.25 235.1206 L722.25 247.1206 Z" clip-path="url(#clipPath2)" stroke="none"/>
      <path fill="none" d="M738.25 241.1206 L722.25 235.1206 L722.25 247.1206 Z" clip-path="url(#clipPath2)"/>
      <path fill="none" d="M455 196.1206 L455 218.1206" clip-path="url(#clipPath2)"/>
      <path d="M455 226.1206 L460 214.1206 L455 217.1206 L450 214.1206 Z" clip-path="url(#clipPath2)" stroke="none"/>
      <text x="462.04" xml:space="preserve" y="215.8345" clip-path="url(#clipPath2)" stroke="none">foundInMeasurementTable</text>
      <path fill="none" d="M572.875 181.1206 L635.75 181.1206" clip-path="url(#clipPath2)"/>
      <path fill="white" d="M650.75 181.1206 L634.75 175.1206 L634.75 187.1206 Z" clip-path="url(#clipPath2)" stroke="none"/>
      <path fill="none" d="M650.75 181.1206 L634.75 175.1206 L634.75 187.1206 Z" clip-path="url(#clipPath2)"/>
      <path fill="none" d="M196.375 114.1206 L196.375 181.1206 L329.125 181.1206" clip-path="url(#clipPath2)"/>
      <path d="M337.125 181.1206 L325.125 176.1206 L328.125 181.1206 L325.125 186.1206 Z" clip-path="url(#clipPath2)" stroke="none"/>
      <rect x="114.3418" y="145.4453" clip-path="url(#clipPath2)" fill="white" width="104.0664" height="18.7012" stroke="none"/>
      <text x="116.3418" xml:space="preserve" y="159.5098" clip-path="url(#clipPath2)" stroke="none">includesPaleoData</text>
      <path fill="none" d="M314.25 99.1206 L362.75 99.1206" clip-path="url(#clipPath2)"/>
      <path fill="white" d="M377.75 99.1206 L361.75 93.1206 L361.75 105.1206 Z" clip-path="url(#clipPath2)" stroke="none"/>
      <path fill="none" d="M377.75 99.1206 L361.75 93.1206 L361.75 105.1206 Z" clip-path="url(#clipPath2)"/>
      <path fill="none" d="M1021.125 965.1206 L1082.025 965.1206" clip-path="url(#clipPath2)"/>
      <path fill="white" d="M1097.025 965.1206 L1081.025 959.1206 L1081.025 971.1206 Z" clip-path="url(#clipPath2)" stroke="none"/>
      <path fill="none" d="M1097.025 965.1206 L1081.025 959.1206 L1081.025 971.1206 Z" clip-path="url(#clipPath2)"/>
      <path fill="none" d="M1021.125 1000.1206 L1089.025 1000.1206" clip-path="url(#clipPath2)"/>
      <path d="M1097.025 1000.1206 L1085.025 995.1206 L1088.025 1000.1206 L1085.025 1005.1206 Z" clip-path="url(#clipPath2)" stroke="none"/>
      <path fill="none" d="M275.9 114.1128 L275.9 140.1206 L336.25 140.1206" clip-path="url(#clipPath2)"/>
      <path d="M344.25 140.1206 L332.25 135.1206 L335.25 140.1206 L332.25 145.1206 Z" clip-path="url(#clipPath2)" stroke="none"/>
      <text x="228.8873" xml:space="preserve" y="138.3345" clip-path="url(#clipPath2)" stroke="none">author</text>
    </g>
  </g>
</svg>
