<?xml version="1.0" encoding="UTF-8"?><svg xmlns="http://www.w3.org/2000/svg" xmlns:xlink="http://www.w3.org/1999/xlink" fill-opacity="1" color-rendering="auto" color-interpolation="auto" text-rendering="auto" stroke="black" stroke-linecap="square" width="1294" stroke-miterlimit="10" shape-rendering="auto" stroke-opacity="1" fill="black" stroke-dasharray="none" font-weight="normal" stroke-width="1" height="978" font-family="'Dialog'" font-style="normal" stroke-linejoin="miter" font-size="12" stroke-dashoffset="0" image-rendering="auto">
  <!--Generated by ySVG 2.5-->
  <defs id="genericDefs"/>
  <g>
    <defs id="defs1">
      <clipPath clipPathUnits="userSpaceOnUse" id="clipPath1">
        <path d="M0 0 L1294 0 L1294 978 L0 978 L0 0 Z"/>
      </clipPath>
      <clipPath clipPathUnits="userSpaceOnUse" id="clipPath2">
        <path d="M351 -428 L1645 -428 L1645 550 L351 550 L351 -428 Z"/>
      </clipPath>
    </defs>
    <g fill="white" text-rendering="geometricPrecision" shape-rendering="geometricPrecision" transform="translate(-351,428)" stroke="white">
      <rect x="351" width="1294" height="978" y="-428" clip-path="url(#clipPath2)" stroke="none"/>
    </g>
    <g fill="white" text-rendering="geometricPrecision" shape-rendering="geometricPrecision" transform="matrix(1,0,0,1,-351,428)" stroke="white">
      <rect x="1341.2948" width="140" height="30" y="133.2911" clip-path="url(#clipPath2)" stroke="none"/>
    </g>
    <g text-rendering="geometricPrecision" stroke-miterlimit="1.45" shape-rendering="geometricPrecision" font-family="sans-serif" transform="matrix(1,0,0,1,-351,428)" stroke-linecap="butt">
      <text x="1376.6132" xml:space="preserve" y="153.005" clip-path="url(#clipPath2)" stroke="none">le:Instrument</text>
      <rect fill="none" x="1341.2948" width="140" height="30" y="133.2911" clip-path="url(#clipPath2)"/>
    </g>
    <g fill="white" text-rendering="geometricPrecision" shape-rendering="geometricPrecision" transform="matrix(1,0,0,1,-351,428)" stroke="white">
      <rect x="1381.2948" width="140" height="30" y="-126.7089" clip-path="url(#clipPath2)" stroke="none"/>
    </g>
    <g text-rendering="geometricPrecision" stroke-miterlimit="1.45" shape-rendering="geometricPrecision" font-family="sans-serif" transform="matrix(1,0,0,1,-351,428)" stroke-linecap="butt">
      <text x="1409.6053" xml:space="preserve" y="-106.995" clip-path="url(#clipPath2)" stroke="none">le:SensorModel</text>
      <rect fill="none" x="1381.2948" width="140" height="30" y="-126.7089" clip-path="url(#clipPath2)"/>
    </g>
    <g fill="white" text-rendering="geometricPrecision" shape-rendering="geometricPrecision" transform="matrix(1,0,0,1,-351,428)" stroke="white">
      <rect x="1371.2948" width="100" height="30" y="3.2911" clip-path="url(#clipPath2)" stroke="none"/>
    </g>
    <g text-rendering="geometricPrecision" stroke-miterlimit="1.45" shape-rendering="geometricPrecision" font-family="sans-serif" transform="matrix(1,0,0,1,-351,428)" stroke-linecap="butt">
      <text x="1394.951" xml:space="preserve" y="23.005" clip-path="url(#clipPath2)" stroke="none">le:Archive</text>
      <rect fill="none" x="1371.2948" width="100" height="30" y="3.2911" clip-path="url(#clipPath2)"/>
    </g>
    <g fill="white" text-rendering="geometricPrecision" shape-rendering="geometricPrecision" transform="matrix(1,0,0,1,-351,428)" stroke="white">
      <rect x="1381.2948" width="190" height="30" y="-186.7089" clip-path="url(#clipPath2)" stroke="none"/>
    </g>
    <g text-rendering="geometricPrecision" stroke-miterlimit="1.45" shape-rendering="geometricPrecision" font-family="sans-serif" transform="matrix(1,0,0,1,-351,428)" stroke-linecap="butt">
      <text x="1421.2665" xml:space="preserve" y="-166.995" clip-path="url(#clipPath2)" stroke="none">le:ObservationModel</text>
      <rect fill="none" x="1381.2948" width="190" height="30" y="-186.7089" clip-path="url(#clipPath2)"/>
    </g>
    <g fill="white" text-rendering="geometricPrecision" shape-rendering="geometricPrecision" transform="matrix(1,0,0,1,-351,428)" stroke="white">
      <rect x="946.6149" width="110" height="30" y="334.0483" clip-path="url(#clipPath2)" stroke="none"/>
    </g>
    <g text-rendering="geometricPrecision" stroke-miterlimit="1.45" shape-rendering="geometricPrecision" font-family="sans-serif" transform="matrix(1,0,0,1,-351,428)" stroke-linecap="butt">
      <text x="973.2643" xml:space="preserve" y="353.7621" clip-path="url(#clipPath2)" stroke="none">le:Variable</text>
      <rect fill="none" x="946.6149" width="110" height="30" y="334.0483" clip-path="url(#clipPath2)"/>
    </g>
    <g fill="white" text-rendering="geometricPrecision" shape-rendering="geometricPrecision" transform="matrix(1,0,0,1,-351,428)" stroke="white">
      <rect x="1216.6149" width="140" height="30" y="288.5743" clip-path="url(#clipPath2)" stroke="none"/>
    </g>
    <g text-rendering="geometricPrecision" stroke-miterlimit="1.45" shape-rendering="geometricPrecision" font-family="sans-serif" transform="matrix(1,0,0,1,-351,428)" stroke-linecap="butt">
      <text x="1235.2545" xml:space="preserve" y="308.2881" clip-path="url(#clipPath2)" stroke="none">le:CalibrationModel</text>
      <rect fill="none" x="1216.6149" width="140" height="30" y="288.5743" clip-path="url(#clipPath2)"/>
      <text x="667.2841" xml:space="preserve" y="23.005" clip-path="url(#clipPath2)" stroke="none">le:Data</text>
      <rect fill="none" x="651.2948" width="70" height="30" y="3.2911" clip-path="url(#clipPath2)"/>
    </g>
    <g fill="white" text-rendering="geometricPrecision" shape-rendering="geometricPrecision" transform="matrix(1,0,0,1,-351,428)" stroke="white">
      <rect x="1071.2948" width="140" height="30" y="3.2911" clip-path="url(#clipPath2)" stroke="none"/>
    </g>
    <g text-rendering="geometricPrecision" stroke-miterlimit="1.45" shape-rendering="geometricPrecision" font-family="sans-serif" transform="matrix(1,0,0,1,-351,428)" stroke-linecap="butt">
      <text x="1086.2635" xml:space="preserve" y="23.005" clip-path="url(#clipPath2)" stroke="none">le:MeasuredVariable</text>
      <rect fill="none" x="1071.2948" width="140" height="30" y="3.2911" clip-path="url(#clipPath2)"/>
    </g>
    <g fill="white" text-rendering="geometricPrecision" shape-rendering="geometricPrecision" transform="matrix(1,0,0,1,-351,428)" stroke="white">
      <rect x="1381.2948" width="130" height="30" y="-69.6253" clip-path="url(#clipPath2)" stroke="none"/>
    </g>
    <g text-rendering="geometricPrecision" stroke-miterlimit="1.45" shape-rendering="geometricPrecision" font-family="sans-serif" transform="matrix(1,0,0,1,-351,428)" stroke-linecap="butt">
      <text x="1411.6073" xml:space="preserve" y="-49.9114" clip-path="url(#clipPath2)" stroke="none">le:Resolution</text>
      <rect fill="none" x="1381.2948" width="130" height="30" y="-69.6253" clip-path="url(#clipPath2)"/>
    </g>
    <g fill="white" text-rendering="geometricPrecision" shape-rendering="geometricPrecision" transform="matrix(1,0,0,1,-351,428)" stroke="white">
      <rect x="1381.2948" width="150" height="30" y="-316.7089" clip-path="url(#clipPath2)" stroke="none"/>
    </g>
    <g text-rendering="geometricPrecision" stroke-miterlimit="1.45" shape-rendering="geometricPrecision" font-family="sans-serif" transform="matrix(1,0,0,1,-351,428)" stroke-linecap="butt">
      <text x="1413.6093" xml:space="preserve" y="-296.995" clip-path="url(#clipPath2)" stroke="none">le:ArchiveModel</text>
      <rect fill="none" x="1381.2948" width="150" height="30" y="-316.7089" clip-path="url(#clipPath2)"/>
      <text x="740.9254" xml:space="preserve" y="523.238" clip-path="url(#clipPath2)" stroke="none">le:Publication</text>
      <rect fill="none" x="706.6149" width="140" height="30" y="503.5241" clip-path="url(#clipPath2)"/>
      <text x="389.873" xml:space="preserve" y="-219.7063" clip-path="url(#clipPath2)" stroke="none">le:Dataset</text>
      <rect fill="none" x="366.8876" width="100" height="30" y="-239.4202" clip-path="url(#clipPath2)"/>
      <text x="764.347" xml:space="preserve" y="-190.7063" clip-path="url(#clipPath2)" stroke="none">le:Funding</text>
      <rect fill="none" x="742.3665" width="100" height="30" y="-210.4202" clip-path="url(#clipPath2)"/>
      <text x="650.9307" xml:space="preserve" y="-115.428" clip-path="url(#clipPath2)" stroke="none">le:Location</text>
      <rect fill="none" x="624.9522" width="110" height="30" y="-135.1418" clip-path="url(#clipPath2)"/>
      <text x="874.621" xml:space="preserve" y="23.005" clip-path="url(#clipPath2)" stroke="none">le:Proxy</text>
      <rect fill="none" x="856.2948" width="80" height="30" y="3.2911" clip-path="url(#clipPath2)"/>
      <text x="1103.2753" xml:space="preserve" y="-190.7063" clip-path="url(#clipPath2)" stroke="none">le:ProxySystemModel</text>
      <rect fill="none" x="1066.2948" width="190" height="30" y="-210.4202" clip-path="url(#clipPath2)"/>
      <text x="742.5953" xml:space="preserve" y="353.7621" clip-path="url(#clipPath2)" stroke="none">le:DataTable</text>
      <rect fill="none" x="716.6149" width="120" height="30" y="334.0483" clip-path="url(#clipPath2)"/>
      <text x="959.9225" xml:space="preserve" y="431.4179" clip-path="url(#clipPath2)" stroke="none">le:Interpretation</text>
      <rect fill="none" x="946.6149" width="110" height="30" y="411.704" clip-path="url(#clipPath2)"/>
      <text x="1050.9471" xml:space="preserve" y="-366.995" clip-path="url(#clipPath2)" stroke="none">le:Sensor</text>
      <rect fill="none" x="1031.2948" width="90" height="30" y="-386.7089" clip-path="url(#clipPath2)"/>
    </g>
    <g fill="white" text-rendering="geometricPrecision" shape-rendering="geometricPrecision" transform="matrix(1,0,0,1,-351,428)" stroke="white">
      <rect x="1458.3639" width="110" height="30" y="295.2204" clip-path="url(#clipPath2)" stroke="none"/>
    </g>
    <g text-rendering="geometricPrecision" stroke-miterlimit="1.45" shape-rendering="geometricPrecision" font-family="sans-serif" transform="matrix(1,0,0,1,-351,428)" stroke-linecap="butt">
      <text x="1483.0182" xml:space="preserve" y="314.9342" clip-path="url(#clipPath2)" stroke="none">Uncertainty</text>
      <rect fill="none" x="1458.3639" width="110" height="30" y="295.2204" clip-path="url(#clipPath2)"/>
      <text x="762.0189" xml:space="preserve" y="-277.5556" clip-path="url(#clipPath2)" stroke="none">le:Person</text>
      <rect fill="none" x="732.3665" width="110" height="30" y="-297.2695" clip-path="url(#clipPath2)"/>
    </g>
    <g fill="white" text-rendering="geometricPrecision" shape-rendering="geometricPrecision" transform="matrix(1,0,0,1,-351,428)" stroke="white">
      <rect x="946.6149" width="140" height="30" y="84.1697" clip-path="url(#clipPath2)" stroke="none"/>
    </g>
    <g text-rendering="geometricPrecision" stroke-miterlimit="1.45" shape-rendering="geometricPrecision" font-family="sans-serif" transform="matrix(1,0,0,1,-351,428)" stroke-linecap="butt">
      <text x="977.9283" xml:space="preserve" y="103.8835" clip-path="url(#clipPath2)" stroke="none">le:Observation</text>
      <rect fill="none" x="946.6149" width="140" height="30" y="84.1697" clip-path="url(#clipPath2)"/>
    </g>
    <g fill="white" text-rendering="geometricPrecision" shape-rendering="geometricPrecision" transform="matrix(1,0,0,1,-351,428)" stroke="white">
      <rect x="1181.1348" width="140" height="30" y="88.4497" clip-path="url(#clipPath2)" stroke="none"/>
    </g>
    <g text-rendering="geometricPrecision" stroke-miterlimit="1.45" shape-rendering="geometricPrecision" font-family="sans-serif" transform="matrix(1,0,0,1,-351,428)" stroke-linecap="butt">
      <text x="1202.1064" xml:space="preserve" y="108.1635" clip-path="url(#clipPath2)" stroke="none">le:InferredVariable</text>
      <rect fill="none" x="1181.1348" width="140" height="30" y="88.4497" clip-path="url(#clipPath2)"/>
      <text x="1048.9932" xml:space="preserve" y="-106.995" clip-path="url(#clipPath2)" stroke="none">le:Model</text>
      <rect fill="none" x="1006.6718" width="130" height="30" y="-126.7089" clip-path="url(#clipPath2)"/>
      <text x="615.9423" xml:space="preserve" y="119.1671" clip-path="url(#clipPath2)" stroke="none">le:ChronData</text>
      <rect fill="none" x="601.2948" width="100" height="30" y="99.4532" clip-path="url(#clipPath2)"/>
      <text x="616.9384" xml:space="preserve" y="161.4379" clip-path="url(#clipPath2)" stroke="none">le:PaleoData</text>
      <rect fill="none" x="601.2948" width="100" height="30" y="141.724" clip-path="url(#clipPath2)"/>
      <text x="514.2283" xml:space="preserve" y="236.0381" clip-path="url(#clipPath2)" stroke="none">le:ChronDataTable</text>
      <rect fill="none" x="504.5896" width="120" height="30" y="216.3242" clip-path="url(#clipPath2)"/>
      <text x="515.2244" xml:space="preserve" y="275.4861" clip-path="url(#clipPath2)" stroke="none">le:PaleoDataTable</text>
      <rect fill="none" x="504.5896" width="120" height="30" y="255.7723" clip-path="url(#clipPath2)"/>
      <text x="516.5633" xml:space="preserve" y="314.9342" clip-path="url(#clipPath2)" stroke="none">le:EnsembleTable</text>
      <rect fill="none" x="504.5896" width="120" height="30" y="295.2204" clip-path="url(#clipPath2)"/>
      <text x="513.2322" xml:space="preserve" y="353.7621" clip-path="url(#clipPath2)" stroke="none">le:DistributionTable</text>
      <rect fill="none" x="504.5896" width="120" height="30" y="334.0483" clip-path="url(#clipPath2)"/>
      <text x="506.5613" xml:space="preserve" y="392.59" clip-path="url(#clipPath2)" stroke="none">le:MeasurementTable</text>
      <rect fill="none" x="504.5896" width="120" height="30" y="372.8761" clip-path="url(#clipPath2)"/>
      <text x="522.5721" xml:space="preserve" y="431.4179" clip-path="url(#clipPath2)" stroke="none">le:SumaryTable</text>
      <rect fill="none" x="504.5896" width="120" height="30" y="411.704" clip-path="url(#clipPath2)"/>
    </g>
    <g fill="white" text-rendering="geometricPrecision" shape-rendering="geometricPrecision" transform="matrix(1,0,0,1,-351,428)" stroke="white">
      <rect x="1155.0948" width="110" height="30" y="-69.6253" clip-path="url(#clipPath2)" stroke="none"/>
    </g>
    <g text-rendering="geometricPrecision" stroke-miterlimit="1.45" shape-rendering="geometricPrecision" font-family="sans-serif" transform="matrix(1,0,0,1,-351,428)" stroke-linecap="butt">
      <text x="1165.7365" xml:space="preserve" y="-49.9114" clip-path="url(#clipPath2)" stroke="none">le:SoftwareCode</text>
      <rect fill="none" x="1155.0948" width="110" height="30" y="-69.6253" clip-path="url(#clipPath2)"/>
      <text x="1037.2743" xml:space="preserve" y="-264.7039" clip-path="url(#clipPath2)" stroke="none">le:ChronModel</text>
      <rect fill="none" x="1011.2948" width="130" height="30" y="-284.4178" clip-path="url(#clipPath2)"/>
      <text x="1038.2704" xml:space="preserve" y="-306.995" clip-path="url(#clipPath2)" stroke="none">le:PaleoModel</text>
      <rect fill="none" x="1011.2948" width="130" height="30" y="-326.7089" clip-path="url(#clipPath2)"/>
      <text x="844.574" xml:space="preserve" y="81.5279" clip-path="url(#clipPath2)" stroke="none">le:ChronProxy</text>
      <rect fill="none" x="842.5896" width="80" height="30" y="61.814" clip-path="url(#clipPath2)"/>
      <text x="835.5779" xml:space="preserve" y="119.1671" clip-path="url(#clipPath2)" stroke="none">le:ClimateProxy</text>
      <rect fill="none" x="832.5896" width="90" height="30" y="99.4532" clip-path="url(#clipPath2)"/>
      <text x="1219.5057" xml:space="preserve" y="-390.2517" clip-path="url(#clipPath2)" stroke="none">le:OrganicSensor</text>
      <rect fill="none" x="1210.5896" width="110.5452" height="30" y="-409.9656" clip-path="url(#clipPath2)"/>
      <text x="1215.8319" xml:space="preserve" y="-338.7015" clip-path="url(#clipPath2)" stroke="none">le:InorganicSensor</text>
      <rect fill="none" x="1210.5896" width="110.5452" height="30" y="-358.4154" clip-path="url(#clipPath2)"/>
      <path fill="none" d="M1211.3323 26.729 L1334.3215 26.729 L1356.2948 46.5311 L1357.2159 125.3093" clip-path="url(#clipPath2)"/>
      <path d="M1357.3094 133.3088 L1362.1688 121.2512 L1357.2042 124.3094 L1352.1696 121.368 Z" clip-path="url(#clipPath2)" stroke="none"/>
      <rect x="1314.4558" y="52.6176" clip-path="url(#clipPath2)" fill="white" width="84.0391" height="18.7012" stroke="none"/>
      <text x="1316.4558" xml:space="preserve" y="66.6821" clip-path="url(#clipPath2)" stroke="none">le:measuredBy</text>
      <path fill="none" d="M1211.2948 12.2911 L1363.2557 12.2911" clip-path="url(#clipPath2)"/>
      <path d="M1371.2557 12.2911 L1359.2557 7.2911 L1362.2557 12.2911 L1359.2557 17.2911 Z" clip-path="url(#clipPath2)" stroke="none"/>
      <rect x="1248.2733" y="2.9405" clip-path="url(#clipPath2)" fill="white" width="86.043" height="18.7012" stroke="none"/>
      <text x="1250.2733" xml:space="preserve" y="17.005" clip-path="url(#clipPath2)" stroke="none">le:measuredOn</text>
      <path fill="none" d="M1141.2948 33.2911 L1141.2948 289.2282 L1158.6456 311.6457 L1208.5865 311.6457" clip-path="url(#clipPath2)"/>
      <path d="M1216.5865 311.6457 L1204.5865 306.6457 L1207.5865 311.6457 L1204.5865 316.6457 Z" clip-path="url(#clipPath2)" stroke="none"/>
      <rect x="1122.9442" y="190.586" clip-path="url(#clipPath2)" fill="white" width="96.7012" height="18.7012" stroke="none"/>
      <text x="1124.9442" xml:space="preserve" y="204.6505" clip-path="url(#clipPath2)" stroke="none">le:calibratedFrom</text>
      <path fill="none" d="M1122.54 33.2672 L1122.54 312.25 L1001.6149 312.25 L1001.6149 326.0482" clip-path="url(#clipPath2)"/>
      <path d="M1001.6149 334.0482 L1006.6149 322.0482 L1001.6149 325.0482 L996.6149 322.0482 Z" clip-path="url(#clipPath2)" stroke="none"/>
      <rect x="1084.765" y="302.8994" clip-path="url(#clipPath2)" fill="white" width="20.6699" height="18.7012" stroke="none"/>
      <text x="1086.765" xml:space="preserve" y="316.9639" clip-path="url(#clipPath2)" stroke="none">isA</text>
      <path fill="none" d="M1444.7948 3.2492 L1444.7948 -31.6253" clip-path="url(#clipPath2)"/>
      <path d="M1444.7948 -39.6253 L1439.7948 -27.6253 L1444.7948 -30.6253 L1449.7948 -27.6253 Z" clip-path="url(#clipPath2)" stroke="none"/>
      <rect x="1418.6387" y="-22.8506" clip-path="url(#clipPath2)" fill="white" width="92.7227" height="18.7012" stroke="none"/>
      <text x="1420.6387" xml:space="preserve" y="-8.7861" clip-path="url(#clipPath2)" stroke="none">le:hasResolution</text>
      <path fill="none" d="M1286.6149 318.5743 L1286.6149 502.3851 L1264.4758 524.5241 L854.6149 524.5241" clip-path="url(#clipPath2)"/>
      <path d="M846.6149 524.5241 L858.6149 529.5241 L855.6149 524.5241 L858.6149 519.5241 Z" clip-path="url(#clipPath2)" stroke="none"/>
      <text x="1091.5725" xml:space="preserve" y="517.8874" clip-path="url(#clipPath2)" stroke="none">le:calibrationReferences</text>
      <path fill="none" d="M385.5543 -209.4202 L385.5543 495.5543 L408.5241 518.5241 L698.5785 518.5241" clip-path="url(#clipPath2)"/>
      <path d="M706.5785 518.5241 L694.5785 513.5241 L697.5785 518.5241 L694.5785 523.5241 Z" clip-path="url(#clipPath2)" stroke="none"/>
      <text x="558.6443" xml:space="preserve" y="511.8874" clip-path="url(#clipPath2)" stroke="none">le:publishedIn</text>
      <path fill="none" d="M416.8876 -209.4202 L416.8876 -4.1124 L439.2911 18.2911 L643.2689 18.2911" clip-path="url(#clipPath2)"/>
      <path d="M651.2689 18.2911 L639.2689 13.2911 L642.2689 18.2911 L639.2689 23.2911 Z" clip-path="url(#clipPath2)" stroke="none"/>
      <rect x="478.2563" y="8.9405" clip-path="url(#clipPath2)" fill="white" width="86.0488" height="18.7012" stroke="none"/>
      <text x="480.2563" xml:space="preserve" y="23.005" clip-path="url(#clipPath2)" stroke="none">le:includesData</text>
      <path fill="none" d="M466.8876 -228.4202 L787.5798 -228.4202 L792.3665 -223.6335 L792.3665 -218.446" clip-path="url(#clipPath2)"/>
      <path d="M792.3665 -210.446 L797.3665 -222.446 L792.3665 -219.446 L787.3665 -222.446 Z" clip-path="url(#clipPath2)" stroke="none"/>
      <rect x="612.8885" y="-237.7708" clip-path="url(#clipPath2)" fill="white" width="67.3809" height="18.7012" stroke="none"/>
      <text x="614.8885" xml:space="preserve" y="-223.7063" clip-path="url(#clipPath2)" stroke="none">le:fundedBy</text>
      <path fill="none" d="M448.221 -209.4202 L448.221 -142.779 L470.8582 -120.1418 L616.9146 -120.1418" clip-path="url(#clipPath2)"/>
      <path d="M624.9146 -120.1418 L612.9146 -125.1418 L615.9146 -120.1418 L612.9146 -115.1418 Z" clip-path="url(#clipPath2)" stroke="none"/>
      <text x="478.3817" xml:space="preserve" y="-126.7785" clip-path="url(#clipPath2)" stroke="none">le:collectedFrom</text>
      <path fill="none" d="M721.2948 18.2911 L848.2618 18.2911" clip-path="url(#clipPath2)"/>
      <path d="M856.2618 18.2911 L844.2618 13.2911 L847.2618 18.2911 L844.2618 23.2911 Z" clip-path="url(#clipPath2)" stroke="none"/>
      <rect x="741.4433" y="8.9405" clip-path="url(#clipPath2)" fill="white" width="52.7031" height="18.7012" stroke="none"/>
      <text x="743.4432" xml:space="preserve" y="23.005" clip-path="url(#clipPath2)" stroke="none">basedOn</text>
      <path fill="none" d="M914.7948 3.2599 L914.7948 -12.7089 L1397.7948 -12.7089 L1397.7948 -4.7401" clip-path="url(#clipPath2)"/>
      <path d="M1397.7948 3.2599 L1402.7948 -8.7401 L1397.7948 -5.7401 L1392.7948 -8.7401 Z" clip-path="url(#clipPath2)" stroke="none"/>
      <rect x="1156.075" y="-22.0595" clip-path="url(#clipPath2)" fill="white" width="72.0391" height="18.7012" stroke="none"/>
      <text x="1158.075" xml:space="preserve" y="-7.995" clip-path="url(#clipPath2)" stroke="none">le:archivedIn</text>
      <path fill="none" d="M1199.9833 -180.4202 L1199.9833 -136.0167 L1218.2911 -117.7089 L1373.255 -117.7089" clip-path="url(#clipPath2)"/>
      <path d="M1381.255 -117.7089 L1369.255 -122.7089 L1372.255 -117.7089 L1369.255 -112.7089 Z" clip-path="url(#clipPath2)" stroke="none"/>
      <rect x="1170.9687" y="-160.3937" clip-path="url(#clipPath2)" fill="white" width="58.0293" height="18.7012" stroke="none"/>
      <text x="1172.9686" xml:space="preserve" y="-146.3293" clip-path="url(#clipPath2)" stroke="none">le:hasPart</text>
      <path fill="none" d="M1256.2948 -183.5645 L1373.2643 -183.5645" clip-path="url(#clipPath2)"/>
      <path d="M1381.2643 -183.5645 L1369.2643 -188.5645 L1372.2643 -183.5645 L1369.2643 -178.5645 Z" clip-path="url(#clipPath2)" stroke="none"/>
      <rect x="1289.7802" y="-192.9151" clip-path="url(#clipPath2)" fill="white" width="58.0293" height="18.7012" stroke="none"/>
      <text x="1291.7802" xml:space="preserve" y="-178.8507" clip-path="url(#clipPath2)" stroke="none">le:hasPart</text>
      <path fill="none" d="M1202.2948 -210.4538 L1202.2948 -279.2948 L1224.7089 -301.7089 L1373.2566 -301.7089" clip-path="url(#clipPath2)"/>
      <path d="M1381.2566 -301.7089 L1369.2566 -306.7089 L1372.2566 -301.7089 L1369.2566 -296.7089 Z" clip-path="url(#clipPath2)" stroke="none"/>
      <rect x="1227.6291" y="-311.0595" clip-path="url(#clipPath2)" fill="white" width="58.0293" height="18.7012" stroke="none"/>
      <text x="1229.6292" xml:space="preserve" y="-296.995" clip-path="url(#clipPath2)" stroke="none">le:hasPart</text>
      <path fill="none" d="M721.2948 26.2911 L738.2911 26.2911 L744.9522 32.9522 L744.9522 326.0115" clip-path="url(#clipPath2)"/>
      <path d="M744.9522 334.0115 L749.9522 322.0115 L744.9522 325.0115 L739.9522 322.0115 Z" clip-path="url(#clipPath2)" stroke="none"/>
      <rect x="737.9248" y="208.9405" clip-path="url(#clipPath2)" fill="white" width="74.0547" height="18.7012" stroke="none"/>
      <text x="739.9249" xml:space="preserve" y="223.005" clip-path="url(#clipPath2)" stroke="none">foundInTable</text>
      <path fill="none" d="M1108.7365 33.2958 L1108.7365 267.5452 L1087.5037 290.4963 L833.5037 290.4963 L820.9488 303.0512 L820.9488 326.018" clip-path="url(#clipPath2)"/>
      <path d="M820.9488 334.018 L825.9488 322.018 L820.9488 325.018 L815.9488 322.018 Z" clip-path="url(#clipPath2)" stroke="none"/>
      <rect x="977.6433" y="281.1457" clip-path="url(#clipPath2)" fill="white" width="86.7285" height="18.7012" stroke="none"/>
      <text x="979.6433" xml:space="preserve" y="295.2102" clip-path="url(#clipPath2)" stroke="none">le:foundInTable</text>
      <path fill="none" d="M946.588 355.0482 L844.6149 355.0482" clip-path="url(#clipPath2)"/>
      <path d="M836.6149 355.0482 L848.6149 360.0482 L845.6149 355.0482 L848.6149 350.0482 Z" clip-path="url(#clipPath2)" stroke="none"/>
      <rect x="851.3104" y="357.9599" clip-path="url(#clipPath2)" fill="white" width="86.7285" height="18.7012" stroke="none"/>
      <text x="853.3104" xml:space="preserve" y="372.0243" clip-path="url(#clipPath2)" stroke="none">le:foundInTable</text>
      <path fill="none" d="M836.6149 343.0482 L938.588 343.0482" clip-path="url(#clipPath2)"/>
      <path d="M946.588 343.0482 L934.588 338.0482 L937.588 343.0482 L934.588 348.0482 Z" clip-path="url(#clipPath2)" stroke="none"/>
      <text x="841.2506" xml:space="preserve" y="336.4115" clip-path="url(#clipPath2)" stroke="none">le:includesVariable</text>
      <path fill="none" d="M1001.6149 364.0482 L1001.6149 403.6575" clip-path="url(#clipPath2)"/>
      <path d="M1001.6149 411.6575 L1006.6149 399.6575 L1001.6149 402.6575 L996.6149 399.6575 Z" clip-path="url(#clipPath2)" stroke="none"/>
      <rect x="957.5914" y="369.0483" clip-path="url(#clipPath2)" fill="white" width="88.0469" height="18.7012" stroke="none"/>
      <text x="959.5914" xml:space="preserve" y="383.1127" clip-path="url(#clipPath2)" stroke="none">le:interpretedAs</text>
      <path fill="none" d="M1001.6149 441.704 L1001.6149 491.3851 L980.4759 512.5241 L854.6149 512.5241" clip-path="url(#clipPath2)"/>
      <path d="M846.6149 512.5241 L858.6149 517.5241 L855.6149 512.5241 L858.6149 507.5241 Z" clip-path="url(#clipPath2)" stroke="none"/>
      <rect x="927.5739" y="464.3693" clip-path="url(#clipPath2)" fill="white" width="148.082" height="18.7012" stroke="none"/>
      <text x="929.5739" xml:space="preserve" y="478.4337" clip-path="url(#clipPath2)" stroke="none">le:interpretationReferences</text>
      <path fill="none" d="M877.7948 3.2481 L877.7948 -348.7948 L900.7089 -371.7089 L1023.2629 -371.7089" clip-path="url(#clipPath2)"/>
      <path d="M1031.2629 -371.7089 L1019.2629 -376.7089 L1022.2629 -371.7089 L1019.2629 -366.7089 Z" clip-path="url(#clipPath2)" stroke="none"/>
      <rect x="863.3755" y="-331.5471" clip-path="url(#clipPath2)" fill="white" width="82.0352" height="18.7012" stroke="none"/>
      <text x="865.3755" xml:space="preserve" y="-317.4827" clip-path="url(#clipPath2)" stroke="none">le:sensingWith</text>
      <path fill="none" d="M1356.6149 306.8973 L1450.3142 306.8973" clip-path="url(#clipPath2)"/>
      <path d="M1458.3142 306.8973 L1446.3142 301.8973 L1449.3142 306.8973 L1446.3142 311.8973 Z" clip-path="url(#clipPath2)" stroke="none"/>
      <rect x="1359.6236" y="283.6994" clip-path="url(#clipPath2)" fill="white" width="96.7129" height="18.7012" stroke="none"/>
      <text x="1361.6235" xml:space="preserve" y="297.7639" clip-path="url(#clipPath2)" stroke="none">le:hasUncertainty</text>
      <path fill="none" d="M1472.3293 163.3172 L1472.3293 287.1882" clip-path="url(#clipPath2)"/>
      <path d="M1472.3293 295.1882 L1477.3293 283.1882 L1472.3293 286.1882 L1467.3293 283.1882 Z" clip-path="url(#clipPath2)" stroke="none"/>
      <rect x="1453.9729" y="218.9051" clip-path="url(#clipPath2)" fill="white" width="96.7129" height="18.7012" stroke="none"/>
      <text x="1455.9729" xml:space="preserve" y="232.9696" clip-path="url(#clipPath2)" stroke="none">le:hasUncertainty</text>
      <path fill="none" d="M1056.6149 349.0482 L1506.9518 349.0482 L1513.3639 342.6361 L1513.3639 333.2204" clip-path="url(#clipPath2)"/>
      <path d="M1513.3639 325.2204 L1508.3639 337.2204 L1513.3639 334.2204 L1518.3639 337.2204 Z" clip-path="url(#clipPath2)" stroke="none"/>
      <rect x="1305.3823" y="339.6977" clip-path="url(#clipPath2)" fill="white" width="96.7129" height="18.7012" stroke="none"/>
      <text x="1307.3823" xml:space="preserve" y="353.7621" clip-path="url(#clipPath2)" stroke="none">le:hasUncertainty</text>
      <path fill="none" d="M1521.2948 -111.7089 L1537.2911 -111.7089 L1543.3293 -105.6707 L1543.3293 287.1714" clip-path="url(#clipPath2)"/>
      <path d="M1543.3293 295.1714 L1548.3293 283.1714 L1543.3293 286.1714 L1538.3293 283.1714 Z" clip-path="url(#clipPath2)" stroke="none"/>
      <path fill="none" d="M1558.019 -156.7089 L1558.019 287.1928" clip-path="url(#clipPath2)"/>
      <path d="M1558.019 295.1928 L1563.019 283.1928 L1558.019 286.1928 L1553.019 283.1928 Z" clip-path="url(#clipPath2)" stroke="none"/>
      <path fill="none" d="M1531.2948 -301.7089 L1567.2911 -301.7089 L1581.2948 -287.7052 L1581.2948 310.2204 L1576.3639 310.2204" clip-path="url(#clipPath2)"/>
      <path d="M1568.3639 310.2204 L1580.3639 315.2204 L1577.3639 310.2204 L1580.3639 305.2204 Z" clip-path="url(#clipPath2)" stroke="none"/>
      <rect x="1532.9384" y="-261.0595" clip-path="url(#clipPath2)" fill="white" width="96.7129" height="18.7012" stroke="none"/>
      <text x="1534.9384" xml:space="preserve" y="-246.995" clip-path="url(#clipPath2)" stroke="none">le:hasUncertainty</text>
      <path fill="none" d="M454.8482 -239.4499 L454.8482 -269.8482 L467.2695 -282.2695 L724.3342 -282.2695" clip-path="url(#clipPath2)"/>
      <path d="M732.3342 -282.2695 L720.3342 -287.2695 L723.3342 -282.2695 L720.3342 -277.2695 Z" clip-path="url(#clipPath2)" stroke="none"/>
      <rect x="532.7447" y="-291.6201" clip-path="url(#clipPath2)" fill="white" width="126.7363" height="18.7012" stroke="none"/>
      <text x="534.7447" xml:space="preserve" y="-277.5556" clip-path="url(#clipPath2)" stroke="none">le:author, le:contributor</text>
      <path fill="none" d="M936.2948 24.2911 L962.2911 24.2911 L972.622 34.622 L972.622 76.1213" clip-path="url(#clipPath2)"/>
      <path d="M972.622 84.1213 L977.622 72.1213 L972.622 75.1213 L967.622 72.1213 Z" clip-path="url(#clipPath2)" stroke="none"/>
      <rect x="932.6005" y="42.87" clip-path="url(#clipPath2)" fill="white" width="80.043" height="18.7012" stroke="none"/>
      <text x="934.6005" xml:space="preserve" y="56.9344" clip-path="url(#clipPath2)" stroke="none">le:observedAs</text>
      <path fill="none" d="M1078.9548 84.12 L1078.9548 41.2911" clip-path="url(#clipPath2)"/>
      <path d="M1078.9548 33.2911 L1073.9548 45.2911 L1078.9548 42.2911 L1083.9548 45.2911 Z" clip-path="url(#clipPath2)" stroke="none"/>
      <rect x="1068.6199" y="49.3798" clip-path="url(#clipPath2)" fill="white" width="20.6699" height="18.7012" stroke="none"/>
      <text x="1070.6199" xml:space="preserve" y="63.4443" clip-path="url(#clipPath2)" stroke="none">isA</text>
      <path fill="none" d="M1181.1332 104.25 L1164.14 104.25 L1164.14 41.305" clip-path="url(#clipPath2)"/>
      <path d="M1164.14 33.305 L1159.14 45.305 L1164.14 42.305 L1169.14 45.305 Z" clip-path="url(#clipPath2)" stroke="none"/>
      <rect x="1148.4979" y="58.2922" clip-path="url(#clipPath2)" fill="white" width="85.3574" height="18.7012" stroke="none"/>
      <text x="1150.4979" xml:space="preserve" y="72.3567" clip-path="url(#clipPath2)" stroke="none">le:inferredFrom</text>
      <path fill="none" d="M1294.4423 118.465 L1294.4423 280.5327" clip-path="url(#clipPath2)"/>
      <path d="M1294.4423 288.5327 L1299.4423 276.5327 L1294.4423 279.5327 L1289.4423 276.5327 Z" clip-path="url(#clipPath2)" stroke="none"/>
      <rect x="1250.9075" y="188.9794" clip-path="url(#clipPath2)" fill="white" width="92.7051" height="18.7012" stroke="none"/>
      <text x="1252.9075" xml:space="preserve" y="203.0439" clip-path="url(#clipPath2)" stroke="none">le:calibratedWith</text>
      <path fill="none" d="M1240.8921 118.4776 L1240.8921 250.17 L1173.1 250.17 L1173.1 341.5903 L1064.6145 341.5903" clip-path="url(#clipPath2)"/>
      <path d="M1056.6145 341.5903 L1068.6145 346.5903 L1065.6145 341.5903 L1068.6145 336.5903 Z" clip-path="url(#clipPath2)" stroke="none"/>
      <rect x="1196.6611" y="240.8194" clip-path="url(#clipPath2)" fill="white" width="20.6699" height="18.7012" stroke="none"/>
      <text x="1198.661" xml:space="preserve" y="254.8839" clip-path="url(#clipPath2)" stroke="none">isA</text>
      <path fill="none" d="M896.2948 3.2442 L896.2948 -20.7089 L1018.6362 -20.7089 L1018.6362 -88.7089" clip-path="url(#clipPath2)"/>
      <path d="M1018.6362 -96.7089 L1013.6362 -84.7089 L1018.6362 -87.7089 L1023.6362 -84.7089 Z" clip-path="url(#clipPath2)" stroke="none"/>
      <rect x="980.2817" y="-60.8842" clip-path="url(#clipPath2)" fill="white" width="76.709" height="18.7012" stroke="none"/>
      <text x="982.2817" xml:space="preserve" y="-46.8197" clip-path="url(#clipPath2)" stroke="none">le:modeledBy</text>
      <path fill="none" d="M721.2948 10.2911 L755.7089 10.2911 L770.2844 -4.2844 L770.2844 -89.2844 L792.7089 -111.7089 L998.6458 -111.7089" clip-path="url(#clipPath2)"/>
      <path d="M1006.6458 -111.7089 L994.6458 -116.7089 L997.6458 -111.7089 L994.6458 -106.7089 Z" clip-path="url(#clipPath2)" stroke="none"/>
      <rect x="701.9299" y="-56.135" clip-path="url(#clipPath2)" fill="white" width="76.709" height="18.7012" stroke="none"/>
      <text x="703.9299" xml:space="preserve" y="-42.0705" clip-path="url(#clipPath2)" stroke="none">le:modeledBy</text>
      <path fill="none" d="M1456.2948 -286.7089 L1456.2948 -248.2948 L1440.4189 -232.419 L1067.4189 -232.419 L1056.2948 -221.2948 L1056.2948 -134.7551" clip-path="url(#clipPath2)"/>
      <path d="M1056.2948 -126.7551 L1061.2948 -138.7551 L1056.2948 -135.7551 L1051.2948 -138.7551 Z" clip-path="url(#clipPath2)" stroke="none"/>
      <rect x="1404.9599" y="-241.7696" clip-path="url(#clipPath2)" fill="white" width="20.6699" height="18.7012" stroke="none"/>
      <text x="1406.9598" xml:space="preserve" y="-227.7051" clip-path="url(#clipPath2)" stroke="none">isA</text>
      <path fill="none" d="M1381.264 -165.0645 L1129.0646 -165.0645 L1118.1964 -154.1964 L1118.1964 -134.7357" clip-path="url(#clipPath2)"/>
      <path d="M1118.1964 -126.7357 L1123.1964 -138.7357 L1118.1964 -135.7357 L1113.1964 -138.7357 Z" clip-path="url(#clipPath2)" stroke="none"/>
      <rect x="1237.1772" y="-174.4151" clip-path="url(#clipPath2)" fill="white" width="20.6699" height="18.7012" stroke="none"/>
      <text x="1239.1772" xml:space="preserve" y="-160.3507" clip-path="url(#clipPath2)" stroke="none">isA</text>
      <path fill="none" d="M1381.265 -105.7089 L1144.6719 -105.7089" clip-path="url(#clipPath2)"/>
      <path d="M1136.6719 -105.7089 L1148.6719 -100.7089 L1145.6719 -105.7089 L1148.6719 -110.7089 Z" clip-path="url(#clipPath2)" stroke="none"/>
      <rect x="1248.6484" y="-115.0595" clip-path="url(#clipPath2)" fill="white" width="20.6699" height="18.7012" stroke="none"/>
      <text x="1250.6483" xml:space="preserve" y="-100.995" clip-path="url(#clipPath2)" stroke="none">isA</text>
      <path fill="none" d="M1087.2456 -134.7351 L1087.2456 -180.4202" clip-path="url(#clipPath2)"/>
      <path d="M1087.2456 -126.7351 L1092.2456 -138.7351 L1087.2456 -135.7351 L1082.2456 -138.7351 Z" clip-path="url(#clipPath2)" stroke="none"/>
      <rect x="1076.9107" y="-162.9151" clip-path="url(#clipPath2)" fill="white" width="20.6699" height="18.7012" stroke="none"/>
      <text x="1078.9106" xml:space="preserve" y="-148.8507" clip-path="url(#clipPath2)" stroke="none">isA</text>
      <path fill="none" d="M1006.6257 -103.7089 L817.7089 -103.7089 L795.6166 -81.6166 L795.6166 326.0229" clip-path="url(#clipPath2)"/>
      <path d="M795.6166 334.0229 L800.6166 322.0229 L795.6166 325.0229 L790.6166 322.0229 Z" clip-path="url(#clipPath2)" stroke="none"/>
      <rect x="883.6357" y="-106.8506" clip-path="url(#clipPath2)" fill="white" width="86.7285" height="18.7012" stroke="none"/>
      <text x="885.6357" xml:space="preserve" y="-92.7861" clip-path="url(#clipPath2)" stroke="none">le:foundInTable</text>
      <path fill="none" d="M1110.6647 -96.7089 L1110.6647 -86.3353 L1113.8329 -83.1671 L1517.8329 -83.1671 L1528.6396 -72.3603 L1528.6396 287.1755" clip-path="url(#clipPath2)"/>
      <path d="M1528.6396 295.1755 L1533.6396 283.1755 L1528.6396 286.1755 L1523.6396 283.1755 Z" clip-path="url(#clipPath2)" stroke="none"/>
      <rect x="1205.3083" y="-92.5177" clip-path="url(#clipPath2)" fill="white" width="96.7129" height="18.7012" stroke="none"/>
      <text x="1207.3082" xml:space="preserve" y="-78.4532" clip-path="url(#clipPath2)" stroke="none">le:hasUncertainty</text>
      <path fill="none" d="M1089.66 -96.7334 L1089.66 -75.016 L1592.66 -75.016 L1599.66 -68.16 L1599.66 522.4 L1590.66 533.2038 L854.6171 533.2038" clip-path="url(#clipPath2)"/>
      <path d="M846.6171 533.2038 L858.6171 538.2038 L855.6171 533.2038 L858.6171 528.2038 Z" clip-path="url(#clipPath2)" stroke="none"/>
      <text x="1401.2275" xml:space="preserve" y="526.5779" clip-path="url(#clipPath2)" stroke="none">modelReferences</text>
      <path fill="none" d="M676.2948 99.4209 L676.2948 41.2911" clip-path="url(#clipPath2)"/>
      <path d="M676.2948 33.2911 L671.2948 45.2911 L676.2948 42.2911 L681.2948 45.2911 Z" clip-path="url(#clipPath2)" stroke="none"/>
      <rect x="665.9599" y="57.0216" clip-path="url(#clipPath2)" fill="white" width="20.6699" height="18.7012" stroke="none"/>
      <text x="667.9598" xml:space="preserve" y="71.086" clip-path="url(#clipPath2)" stroke="none">isA</text>
      <path fill="none" d="M701.2948 156.724 L714.7948 156.724 L714.7948 41.2911" clip-path="url(#clipPath2)"/>
      <path d="M714.7948 33.2911 L709.7948 45.2911 L714.7948 42.2911 L719.7948 45.2911 Z" clip-path="url(#clipPath2)" stroke="none"/>
      <rect x="704.4599" y="71.3735" clip-path="url(#clipPath2)" fill="white" width="20.6699" height="18.7012" stroke="none"/>
      <text x="706.4598" xml:space="preserve" y="85.4379" clip-path="url(#clipPath2)" stroke="none">isA</text>
      <path fill="none" d="M624.5897 231.3242 L715.3242 231.3242 L737.713 253.713 L737.713 326.009" clip-path="url(#clipPath2)"/>
      <path d="M737.713 334.009 L742.713 322.009 L737.713 325.009 L732.713 322.009 Z" clip-path="url(#clipPath2)" stroke="none"/>
      <rect x="727.378" y="268.3068" clip-path="url(#clipPath2)" fill="white" width="20.6699" height="18.7012" stroke="none"/>
      <text x="729.378" xml:space="preserve" y="282.3712" clip-path="url(#clipPath2)" stroke="none">isA</text>
      <path fill="none" d="M624.5897 269.347 L711.347 269.347 L730.4737 288.4737 L730.4737 326.0038" clip-path="url(#clipPath2)"/>
      <path d="M730.4737 334.0038 L735.4737 322.0038 L730.4737 325.0038 L725.4737 322.0038 Z" clip-path="url(#clipPath2)" stroke="none"/>
      <rect x="629.5896" y="259.9964" clip-path="url(#clipPath2)" fill="white" width="20.6699" height="18.7012" stroke="none"/>
      <text x="631.5897" xml:space="preserve" y="274.0608" clip-path="url(#clipPath2)" stroke="none">isA</text>
      <path fill="none" d="M624.5897 311.6457 L716.6457 311.6457 L723.2345 318.2345 L723.2345 326.0174" clip-path="url(#clipPath2)"/>
      <path d="M723.2345 334.0174 L728.2345 322.0174 L723.2345 325.0174 L718.2345 322.0174 Z" clip-path="url(#clipPath2)" stroke="none"/>
      <rect x="629.5896" y="302.2951" clip-path="url(#clipPath2)" fill="white" width="20.6699" height="18.7012" stroke="none"/>
      <text x="631.5897" xml:space="preserve" y="316.3596" clip-path="url(#clipPath2)" stroke="none">isA</text>
      <path fill="none" d="M624.5897 349.0482 L708.5699 349.0482" clip-path="url(#clipPath2)"/>
      <path d="M716.5699 349.0482 L704.5699 344.0482 L707.5699 349.0482 L704.5699 354.0482 Z" clip-path="url(#clipPath2)" stroke="none"/>
      <rect x="660.2673" y="339.6977" clip-path="url(#clipPath2)" fill="white" width="20.6699" height="18.7012" stroke="none"/>
      <text x="662.2673" xml:space="preserve" y="353.7621" clip-path="url(#clipPath2)" stroke="none">isA</text>
      <path fill="none" d="M624.5897 387.8761 L741.1238 387.8761 L748.1149 380.8851 L748.1149 372.0482" clip-path="url(#clipPath2)"/>
      <path d="M748.1149 364.0482 L743.1149 376.0482 L748.1149 373.0482 L753.1149 376.0482 Z" clip-path="url(#clipPath2)" stroke="none"/>
      <rect x="680.1893" y="378.5256" clip-path="url(#clipPath2)" fill="white" width="20.6699" height="18.7012" stroke="none"/>
      <text x="682.1893" xml:space="preserve" y="392.59" clip-path="url(#clipPath2)" stroke="none">isA</text>
      <path fill="none" d="M624.5897 426.704 L787.296 426.704 L805.1149 408.8851 L805.1149 372.0482" clip-path="url(#clipPath2)"/>
      <path d="M805.1149 364.0482 L800.1149 376.0482 L805.1149 373.0482 L810.1149 376.0482 Z" clip-path="url(#clipPath2)" stroke="none"/>
      <rect x="703.2753" y="417.3534" clip-path="url(#clipPath2)" fill="white" width="20.6699" height="18.7012" stroke="none"/>
      <text x="705.2753" xml:space="preserve" y="431.4179" clip-path="url(#clipPath2)" stroke="none">isA</text>
      <path fill="none" d="M1064.6505 -96.7089 L1064.6505 -66.3495 L1076.3748 -54.6253 L1147.0564 -54.6253" clip-path="url(#clipPath2)"/>
      <path d="M1155.0564 -54.6253 L1143.0564 -59.6253 L1146.0564 -54.6253 L1143.0564 -49.6253 Z" clip-path="url(#clipPath2)" stroke="none"/>
      <rect x="1074.2084" y="-63.9758" clip-path="url(#clipPath2)" fill="white" width="52.0352" height="18.7012" stroke="none"/>
      <text x="1076.2084" xml:space="preserve" y="-49.9114" clip-path="url(#clipPath2)" stroke="none">hasCode</text>
      <path fill="none" d="M1029.2169 -254.4178 L1029.2169 -134.7401" clip-path="url(#clipPath2)"/>
      <path d="M1029.2169 -126.7401 L1034.2169 -138.7401 L1029.2169 -135.7401 L1024.2169 -138.7401 Z" clip-path="url(#clipPath2)" stroke="none"/>
      <rect x="1018.882" y="-199.9139" clip-path="url(#clipPath2)" fill="white" width="20.6699" height="18.7012" stroke="none"/>
      <text x="1020.882" xml:space="preserve" y="-185.8495" clip-path="url(#clipPath2)" stroke="none">isA</text>
      <path fill="none" d="M1011.2535 -311.7089 L1000.7089 -311.7089 L996.6718 -307.6718 L996.6718 -119.7089 L998.6328 -119.7089" clip-path="url(#clipPath2)"/>
      <path d="M1006.6328 -119.7089 L994.6328 -124.7089 L997.6328 -119.7089 L994.6328 -114.7089 Z" clip-path="url(#clipPath2)" stroke="none"/>
      <rect x="986.3369" y="-223.041" clip-path="url(#clipPath2)" fill="white" width="20.6699" height="18.7012" stroke="none"/>
      <text x="988.3369" xml:space="preserve" y="-208.9765" clip-path="url(#clipPath2)" stroke="none">isA</text>
      <path fill="none" d="M896.2948 61.8354 L896.2948 41.2911" clip-path="url(#clipPath2)"/>
      <path d="M896.2948 33.2911 L891.2948 45.2911 L896.2948 42.2911 L901.2948 45.2911 Z" clip-path="url(#clipPath2)" stroke="none"/>
      <text x="871.165" xml:space="preserve" y="55.7139" clip-path="url(#clipPath2)" stroke="none">isA</text>
      <path fill="none" d="M832.5897 114.4532 L822.5 114.4532 L822.5 26 L848.2717 26" clip-path="url(#clipPath2)"/>
      <path d="M856.2717 26 L844.2717 21 L847.2717 26 L844.2717 31 Z" clip-path="url(#clipPath2)" stroke="none"/>
      <rect x="817.2099" y="75.1026" clip-path="url(#clipPath2)" fill="white" width="20.6699" height="18.7012" stroke="none"/>
      <text x="819.2098" xml:space="preserve" y="89.1671" clip-path="url(#clipPath2)" stroke="none">isA</text>
      <path fill="none" d="M1210.5809 -403.0232 L1112.7227 -403.0232 L1108.2294 -399.3392 L1108.2294 -394.732" clip-path="url(#clipPath2)"/>
      <path d="M1108.2294 -386.732 L1113.2294 -398.732 L1108.2294 -395.732 L1103.2294 -398.732 Z" clip-path="url(#clipPath2)" stroke="none"/>
      <rect x="1143.6537" y="-412.3738" clip-path="url(#clipPath2)" fill="white" width="20.6699" height="18.7012" stroke="none"/>
      <text x="1145.6537" xml:space="preserve" y="-398.3094" clip-path="url(#clipPath2)" stroke="none">isA</text>
      <path fill="none" d="M1210.5731 -336.1625 L1107.8057 -336.1625 L1101.4136 -341.9297 L1101.4136 -348.738" clip-path="url(#clipPath2)"/>
      <path d="M1101.4136 -356.738 L1096.4136 -344.738 L1101.4136 -347.738 L1106.4136 -344.738 Z" clip-path="url(#clipPath2)" stroke="none"/>
      <rect x="1141.1952" y="-345.5131" clip-path="url(#clipPath2)" fill="white" width="20.6699" height="18.7012" stroke="none"/>
      <text x="1143.1952" xml:space="preserve" y="-331.4486" clip-path="url(#clipPath2)" stroke="none">isA</text>
    </g>
  </g>
</svg>
