<?xml version="1.0" encoding="UTF-8"?><svg xmlns="http://www.w3.org/2000/svg" xmlns:xlink="http://www.w3.org/1999/xlink" fill-opacity="1" color-rendering="auto" color-interpolation="auto" text-rendering="auto" stroke="black" stroke-linecap="square" width="1391" stroke-miterlimit="10" shape-rendering="auto" stroke-opacity="1" fill="black" stroke-dasharray="none" font-weight="normal" stroke-width="1" height="953" font-family="'Dialog'" font-style="normal" stroke-linejoin="miter" font-size="12" stroke-dashoffset="0" image-rendering="auto">
  <!--Generated by ySVG 2.5-->
  <defs id="genericDefs"/>
  <g>
    <defs id="defs1">
      <clipPath clipPathUnits="userSpaceOnUse" id="clipPath1">
        <path d="M0 0 L1391 0 L1391 953 L0 953 L0 0 Z"/>
      </clipPath>
      <clipPath clipPathUnits="userSpaceOnUse" id="clipPath2">
        <path d="M351 -402 L1742 -402 L1742 551 L351 551 L351 -402 Z"/>
      </clipPath>
    </defs>
    <g fill="white" text-rendering="geometricPrecision" shape-rendering="geometricPrecision" transform="translate(-351,402)" stroke="white">
      <rect x="351" width="1391" height="953" y="-402" clip-path="url(#clipPath2)" stroke="none"/>
    </g>
    <g fill="white" text-rendering="geometricPrecision" shape-rendering="geometricPrecision" transform="matrix(1,0,0,1,-351,402)" stroke="white">
      <rect x="1356.2948" width="130" height="30" y="133.2911" clip-path="url(#clipPath2)" stroke="none"/>
    </g>
    <g text-rendering="geometricPrecision" stroke-miterlimit="1.45" shape-rendering="geometricPrecision" font-family="sans-serif" transform="matrix(1,0,0,1,-351,402)" stroke-linecap="butt">
      <text x="1386.6132" xml:space="preserve" y="153.005" clip-path="url(#clipPath2)" stroke="none">le:Instrument</text>
      <rect fill="none" x="1356.2948" width="130" height="30" y="133.2911" clip-path="url(#clipPath2)"/>
    </g>
    <g fill="white" text-rendering="geometricPrecision" shape-rendering="geometricPrecision" transform="matrix(1,0,0,1,-351,402)" stroke="white">
      <rect x="1381.2948" width="140" height="30" y="-126.7089" clip-path="url(#clipPath2)" stroke="none"/>
    </g>
    <g text-rendering="geometricPrecision" stroke-miterlimit="1.45" shape-rendering="geometricPrecision" font-family="sans-serif" transform="matrix(1,0,0,1,-351,402)" stroke-linecap="butt">
      <text x="1409.6053" xml:space="preserve" y="-106.995" clip-path="url(#clipPath2)" stroke="none">le:SensorModel</text>
      <rect fill="none" x="1381.2948" width="140" height="30" y="-126.7089" clip-path="url(#clipPath2)"/>
    </g>
    <g fill="white" text-rendering="geometricPrecision" shape-rendering="geometricPrecision" transform="matrix(1,0,0,1,-351,402)" stroke="white">
      <rect x="1371.2948" width="100" height="30" y="3.2911" clip-path="url(#clipPath2)" stroke="none"/>
    </g>
    <g text-rendering="geometricPrecision" stroke-miterlimit="1.45" shape-rendering="geometricPrecision" font-family="sans-serif" transform="matrix(1,0,0,1,-351,402)" stroke-linecap="butt">
      <text x="1394.951" xml:space="preserve" y="23.005" clip-path="url(#clipPath2)" stroke="none">le:Archive</text>
      <rect fill="none" x="1371.2948" width="100" height="30" y="3.2911" clip-path="url(#clipPath2)"/>
    </g>
    <g fill="white" text-rendering="geometricPrecision" shape-rendering="geometricPrecision" transform="matrix(1,0,0,1,-351,402)" stroke="white">
      <rect x="1381.2948" width="190" height="30" y="-186.7089" clip-path="url(#clipPath2)" stroke="none"/>
    </g>
    <g text-rendering="geometricPrecision" stroke-miterlimit="1.45" shape-rendering="geometricPrecision" font-family="sans-serif" transform="matrix(1,0,0,1,-351,402)" stroke-linecap="butt">
      <text x="1421.2665" xml:space="preserve" y="-166.995" clip-path="url(#clipPath2)" stroke="none">le:ObservationModel</text>
      <rect fill="none" x="1381.2948" width="190" height="30" y="-186.7089" clip-path="url(#clipPath2)"/>
    </g>
    <g fill="white" text-rendering="geometricPrecision" shape-rendering="geometricPrecision" transform="matrix(1,0,0,1,-351,402)" stroke="white">
      <rect x="946.6149" width="110" height="30" y="334.0483" clip-path="url(#clipPath2)" stroke="none"/>
    </g>
    <g text-rendering="geometricPrecision" stroke-miterlimit="1.45" shape-rendering="geometricPrecision" font-family="sans-serif" transform="matrix(1,0,0,1,-351,402)" stroke-linecap="butt">
      <text x="973.2643" xml:space="preserve" y="353.7621" clip-path="url(#clipPath2)" stroke="none">le:Variable</text>
      <rect fill="none" x="946.6149" width="110" height="30" y="334.0483" clip-path="url(#clipPath2)"/>
    </g>
    <g fill="white" text-rendering="geometricPrecision" shape-rendering="geometricPrecision" transform="matrix(1,0,0,1,-351,402)" stroke="white">
      <rect x="1216.6149" width="140" height="30" y="464.0483" clip-path="url(#clipPath2)" stroke="none"/>
    </g>
    <g text-rendering="geometricPrecision" stroke-miterlimit="1.45" shape-rendering="geometricPrecision" font-family="sans-serif" transform="matrix(1,0,0,1,-351,402)" stroke-linecap="butt">
      <text x="1235.2545" xml:space="preserve" y="483.7621" clip-path="url(#clipPath2)" stroke="none">le:CalibrationModel</text>
      <rect fill="none" x="1216.6149" width="140" height="30" y="464.0483" clip-path="url(#clipPath2)"/>
      <text x="667.2841" xml:space="preserve" y="23.005" clip-path="url(#clipPath2)" stroke="none">le:Data</text>
      <rect fill="none" x="651.2948" width="70" height="30" y="3.2911" clip-path="url(#clipPath2)"/>
    </g>
    <g fill="white" text-rendering="geometricPrecision" shape-rendering="geometricPrecision" transform="matrix(1,0,0,1,-351,402)" stroke="white">
      <rect x="1246.6149" width="80" height="30" y="204.0483" clip-path="url(#clipPath2)" stroke="none"/>
    </g>
    <g text-rendering="geometricPrecision" stroke-miterlimit="1.45" shape-rendering="geometricPrecision" font-family="sans-serif" transform="matrix(1,0,0,1,-351,402)" stroke-linecap="butt">
      <text x="1263.9362" xml:space="preserve" y="223.7621" clip-path="url(#clipPath2)" stroke="none">le:Model</text>
      <rect fill="none" x="1246.6149" width="80" height="30" y="204.0483" clip-path="url(#clipPath2)"/>
    </g>
    <g fill="white" text-rendering="geometricPrecision" shape-rendering="geometricPrecision" transform="matrix(1,0,0,1,-351,402)" stroke="white">
      <rect x="1091.2948" width="140" height="30" y="3.2911" clip-path="url(#clipPath2)" stroke="none"/>
    </g>
    <g text-rendering="geometricPrecision" stroke-miterlimit="1.45" shape-rendering="geometricPrecision" font-family="sans-serif" transform="matrix(1,0,0,1,-351,402)" stroke-linecap="butt">
      <text x="1106.2635" xml:space="preserve" y="23.005" clip-path="url(#clipPath2)" stroke="none">le:MeasuredVariable</text>
      <rect fill="none" x="1091.2948" width="140" height="30" y="3.2911" clip-path="url(#clipPath2)"/>
    </g>
    <g fill="white" text-rendering="geometricPrecision" shape-rendering="geometricPrecision" transform="matrix(1,0,0,1,-351,402)" stroke="white">
      <rect x="1586.2948" width="130" height="30" y="3.2911" clip-path="url(#clipPath2)" stroke="none"/>
    </g>
    <g text-rendering="geometricPrecision" stroke-miterlimit="1.45" shape-rendering="geometricPrecision" font-family="sans-serif" transform="matrix(1,0,0,1,-351,402)" stroke-linecap="butt">
      <text x="1616.6073" xml:space="preserve" y="23.005" clip-path="url(#clipPath2)" stroke="none">le:Resolution</text>
      <rect fill="none" x="1586.2948" width="130" height="30" y="3.2911" clip-path="url(#clipPath2)"/>
    </g>
    <g fill="white" text-rendering="geometricPrecision" shape-rendering="geometricPrecision" transform="matrix(1,0,0,1,-351,402)" stroke="white">
      <rect x="1381.2948" width="150" height="30" y="-316.7089" clip-path="url(#clipPath2)" stroke="none"/>
    </g>
    <g text-rendering="geometricPrecision" stroke-miterlimit="1.45" shape-rendering="geometricPrecision" font-family="sans-serif" transform="matrix(1,0,0,1,-351,402)" stroke-linecap="butt">
      <text x="1413.6093" xml:space="preserve" y="-296.995" clip-path="url(#clipPath2)" stroke="none">le:ArchiveModel</text>
      <rect fill="none" x="1381.2948" width="150" height="30" y="-316.7089" clip-path="url(#clipPath2)"/>
      <text x="740.9254" xml:space="preserve" y="523.238" clip-path="url(#clipPath2)" stroke="none">le:Publication</text>
      <rect fill="none" x="706.6149" width="140" height="30" y="503.5241" clip-path="url(#clipPath2)"/>
      <text x="389.873" xml:space="preserve" y="-219.7063" clip-path="url(#clipPath2)" stroke="none">le:Dataset</text>
      <rect fill="none" x="366.8876" width="100" height="30" y="-239.4202" clip-path="url(#clipPath2)"/>
      <text x="764.347" xml:space="preserve" y="-190.7063" clip-path="url(#clipPath2)" stroke="none">le:Funding</text>
      <rect fill="none" x="742.3665" width="100" height="30" y="-210.4202" clip-path="url(#clipPath2)"/>
      <text x="650.9307" xml:space="preserve" y="-115.428" clip-path="url(#clipPath2)" stroke="none">le:Location</text>
      <rect fill="none" x="624.9522" width="110" height="30" y="-135.1418" clip-path="url(#clipPath2)"/>
      <text x="874.621" xml:space="preserve" y="23.005" clip-path="url(#clipPath2)" stroke="none">le:Proxy</text>
      <rect fill="none" x="856.2948" width="80" height="30" y="3.2911" clip-path="url(#clipPath2)"/>
      <text x="1103.2753" xml:space="preserve" y="-106.995" clip-path="url(#clipPath2)" stroke="none">le:ProxySystemModel</text>
      <rect fill="none" x="1066.2948" width="190" height="30" y="-126.7089" clip-path="url(#clipPath2)"/>
      <text x="742.5953" xml:space="preserve" y="353.7621" clip-path="url(#clipPath2)" stroke="none">le:DataTable</text>
      <rect fill="none" x="716.6149" width="120" height="30" y="334.0483" clip-path="url(#clipPath2)"/>
      <text x="1224.5846" xml:space="preserve" y="353.7621" clip-path="url(#clipPath2)" stroke="none">le:ClimateInterpretation</text>
      <rect fill="none" x="1166.6149" width="240" height="30" y="334.0483" clip-path="url(#clipPath2)"/>
      <text x="1135.9471" xml:space="preserve" y="-366.995" clip-path="url(#clipPath2)" stroke="none">le:Sensor</text>
      <rect fill="none" x="1116.2948" width="90" height="30" y="-386.7089" clip-path="url(#clipPath2)"/>
    </g>
    <g fill="white" text-rendering="geometricPrecision" shape-rendering="geometricPrecision" transform="matrix(1,0,0,1,-351,402)" stroke="white">
      <rect x="1468.3639" width="110" height="30" y="443.8575" clip-path="url(#clipPath2)" stroke="none"/>
    </g>
    <g text-rendering="geometricPrecision" stroke-miterlimit="1.45" shape-rendering="geometricPrecision" font-family="sans-serif" transform="matrix(1,0,0,1,-351,402)" stroke-linecap="butt">
      <text x="1493.0182" xml:space="preserve" y="463.5713" clip-path="url(#clipPath2)" stroke="none">Uncertainty</text>
      <rect fill="none" x="1468.3639" width="110" height="30" y="443.8575" clip-path="url(#clipPath2)"/>
      <text x="756.681" xml:space="preserve" y="-277.5556" clip-path="url(#clipPath2)" stroke="none">foaf:Person</text>
      <rect fill="none" x="732.3665" width="110" height="30" y="-297.2695" clip-path="url(#clipPath2)"/>
    </g>
    <g fill="white" text-rendering="geometricPrecision" shape-rendering="geometricPrecision" transform="matrix(1,0,0,1,-351,402)" stroke="white">
      <rect x="1231.6149" width="110" height="30" y="269.0483" clip-path="url(#clipPath2)" stroke="none"/>
    </g>
    <g text-rendering="geometricPrecision" stroke-miterlimit="1.45" shape-rendering="geometricPrecision" font-family="sans-serif" transform="matrix(1,0,0,1,-351,402)" stroke-linecap="butt">
      <text x="1242.2565" xml:space="preserve" y="288.7621" clip-path="url(#clipPath2)" stroke="none">le:SoftwareCode</text>
      <rect fill="none" x="1231.6149" width="110" height="30" y="269.0483" clip-path="url(#clipPath2)"/>
    </g>
    <g fill="white" text-rendering="geometricPrecision" shape-rendering="geometricPrecision" transform="matrix(1,0,0,1,-351,402)" stroke="white">
      <rect x="946.6149" width="140" height="30" y="71.1697" clip-path="url(#clipPath2)" stroke="none"/>
    </g>
    <g text-rendering="geometricPrecision" stroke-miterlimit="1.45" shape-rendering="geometricPrecision" font-family="sans-serif" transform="matrix(1,0,0,1,-351,402)" stroke-linecap="butt">
      <text x="977.9283" xml:space="preserve" y="90.8835" clip-path="url(#clipPath2)" stroke="none">le:Observation</text>
      <rect fill="none" x="946.6149" width="140" height="30" y="71.1697" clip-path="url(#clipPath2)"/>
    </g>
    <g fill="white" text-rendering="geometricPrecision" shape-rendering="geometricPrecision" transform="matrix(1,0,0,1,-351,402)" stroke="white">
      <rect x="1239.5896" width="140" height="30" y="71.1697" clip-path="url(#clipPath2)" stroke="none"/>
    </g>
    <g text-rendering="geometricPrecision" stroke-miterlimit="1.45" shape-rendering="geometricPrecision" font-family="sans-serif" transform="matrix(1,0,0,1,-351,402)" stroke-linecap="butt">
      <text x="1260.5613" xml:space="preserve" y="90.8835" clip-path="url(#clipPath2)" stroke="none">le:InferredVariable</text>
      <rect fill="none" x="1239.5896" width="140" height="30" y="71.1697" clip-path="url(#clipPath2)"/>
      <path fill="none" d="M1156.6149 33.2911 L1156.6149 125.6149 L1179.2911 148.2911 L1348.2516 148.2911" clip-path="url(#clipPath2)"/>
      <path d="M1356.2516 148.2911 L1344.2516 143.2911 L1347.2516 148.2911 L1344.2516 153.2911 Z" clip-path="url(#clipPath2)" stroke="none"/>
      <rect x="1202.2637" y="138.9405" clip-path="url(#clipPath2)" fill="white" width="84.0391" height="18.7012" stroke="none"/>
      <text x="1204.2637" xml:space="preserve" y="153.005" clip-path="url(#clipPath2)" stroke="none">le:measuredBy</text>
      <path fill="none" d="M1231.2948 12.2911 L1363.2606 12.2911" clip-path="url(#clipPath2)"/>
      <path d="M1371.2606 12.2911 L1359.2606 7.2911 L1362.2606 12.2911 L1359.2606 17.2911 Z" clip-path="url(#clipPath2)" stroke="none"/>
      <rect x="1258.2733" y="2.9405" clip-path="url(#clipPath2)" fill="white" width="86.043" height="18.7012" stroke="none"/>
      <text x="1260.2733" xml:space="preserve" y="17.005" clip-path="url(#clipPath2)" stroke="none">le:measuredOn</text>
      <path fill="none" d="M1471.2948 18.2911 L1578.2667 18.2911" clip-path="url(#clipPath2)"/>
      <path d="M1586.2667 18.2911 L1574.2667 13.2911 L1577.2667 18.2911 L1574.2667 23.2911 Z" clip-path="url(#clipPath2)" stroke="none"/>
      <text x="1479.0629" xml:space="preserve" y="34.3556" clip-path="url(#clipPath2)" stroke="none">le:hasResolution</text>
      <path fill="none" d="M1286.6149 494.0482 L1286.6149 517.3851 L1277.4758 526.5241 L854.6149 526.5241" clip-path="url(#clipPath2)"/>
      <path d="M846.6149 526.5241 L858.6149 531.5241 L855.6149 526.5241 L858.6149 521.5241 Z" clip-path="url(#clipPath2)" stroke="none"/>
      <text x="869.3536" xml:space="preserve" y="531.238" clip-path="url(#clipPath2)" stroke="none">le:calibrationReferences</text>
      <path fill="none" d="M1246.5818 219.0482 L1178.9518 219.0482 L1156.6149 241.3851 L1156.6149 488.3851 L1134.4758 510.5241 L854.6149 510.5241" clip-path="url(#clipPath2)"/>
      <path d="M846.6149 510.5241 L858.6149 515.5242 L855.6149 510.5241 L858.6149 505.5241 Z" clip-path="url(#clipPath2)" stroke="none"/>
      <text x="1145.1754" xml:space="preserve" y="235.1127" clip-path="url(#clipPath2)" stroke="none">le:modelReferences</text>
      <path fill="none" d="M385.5543 -209.4202 L385.5543 495.5543 L408.5241 518.5241 L698.5785 518.5241" clip-path="url(#clipPath2)"/>
      <path d="M706.5785 518.5241 L694.5785 513.5241 L697.5785 518.5241 L694.5785 523.5241 Z" clip-path="url(#clipPath2)" stroke="none"/>
      <text x="558.6443" xml:space="preserve" y="511.8874" clip-path="url(#clipPath2)" stroke="none">le:publishedIn</text>
      <path fill="none" d="M416.8876 -209.4202 L416.8876 -4.1124 L439.2911 18.2911 L643.2689 18.2911" clip-path="url(#clipPath2)"/>
      <path d="M651.2689 18.2911 L639.2689 13.2911 L642.2689 18.2911 L639.2689 23.2911 Z" clip-path="url(#clipPath2)" stroke="none"/>
      <text x="405.9612" xml:space="preserve" y="34.3556" clip-path="url(#clipPath2)" stroke="none">le:includesData</text>
      <path fill="none" d="M466.8876 -228.4202 L787.5798 -228.4202 L792.3665 -223.6335 L792.3665 -218.446" clip-path="url(#clipPath2)"/>
      <path d="M792.3665 -210.446 L797.3665 -222.446 L792.3665 -219.446 L787.3665 -222.446 Z" clip-path="url(#clipPath2)" stroke="none"/>
      <rect x="612.8885" y="-237.7708" clip-path="url(#clipPath2)" fill="white" width="67.3809" height="18.7012" stroke="none"/>
      <text x="614.8885" xml:space="preserve" y="-223.7063" clip-path="url(#clipPath2)" stroke="none">le:fundedBy</text>
      <path fill="none" d="M448.221 -209.4202 L448.221 -142.779 L470.8582 -120.1418 L616.9146 -120.1418" clip-path="url(#clipPath2)"/>
      <path d="M624.9146 -120.1418 L612.9146 -125.1418 L615.9146 -120.1418 L612.9146 -115.1418 Z" clip-path="url(#clipPath2)" stroke="none"/>
      <text x="452.221" xml:space="preserve" y="-188.9377" clip-path="url(#clipPath2)" stroke="none">le:collectedFrom</text>
      <path fill="none" d="M721.2948 12.2911 L848.2618 12.2911" clip-path="url(#clipPath2)"/>
      <path d="M856.2618 12.2911 L844.2618 7.2911 L847.2618 12.2911 L844.2618 17.2911 Z" clip-path="url(#clipPath2)" stroke="none"/>
      <rect x="762.4433" y="2.9405" clip-path="url(#clipPath2)" fill="white" width="52.7031" height="18.7012" stroke="none"/>
      <text x="764.4432" xml:space="preserve" y="17.005" clip-path="url(#clipPath2)" stroke="none">basedOn</text>
      <path fill="none" d="M920.9615 3.252 L920.9615 -6.7089 L1421.2948 -6.7089 L1421.2948 -4.748" clip-path="url(#clipPath2)"/>
      <path d="M1421.2948 3.252 L1426.2948 -8.748 L1421.2948 -5.748 L1416.2948 -8.748 Z" clip-path="url(#clipPath2)" stroke="none"/>
      <text x="1185.5878" xml:space="preserve" y="-13.3456" clip-path="url(#clipPath2)" stroke="none">le:archivedIn</text>
      <path fill="none" d="M896.2948 3.2459 L896.2948 -89.2948 L918.7089 -111.7089 L1058.2588 -111.7089" clip-path="url(#clipPath2)"/>
      <path d="M1066.2588 -111.7089 L1054.2588 -116.7089 L1057.2588 -111.7089 L1054.2588 -106.7089 Z" clip-path="url(#clipPath2)" stroke="none"/>
      <text x="867.3533" xml:space="preserve" y="-91.9939" clip-path="url(#clipPath2)" stroke="none">le:modeledBy</text>
      <path fill="none" d="M1256.2948 -111.7089 L1373.2643 -111.7089" clip-path="url(#clipPath2)"/>
      <path d="M1381.2643 -111.7089 L1369.2643 -116.7089 L1372.2643 -111.7089 L1369.2643 -106.7089 Z" clip-path="url(#clipPath2)" stroke="none"/>
      <text x="1298.1171" xml:space="preserve" y="-76.995" clip-path="url(#clipPath2)" stroke="none">hasPart</text>
      <path fill="none" d="M1207.2948 -126.7397 L1207.2948 -158.2948 L1220.7089 -171.7089 L1373.2556 -171.7089" clip-path="url(#clipPath2)"/>
      <path d="M1381.2556 -171.7089 L1369.2556 -176.7089 L1372.2556 -171.7089 L1369.2556 -166.7089 Z" clip-path="url(#clipPath2)" stroke="none"/>
      <text x="1216.6171" xml:space="preserve" y="-144.9633" clip-path="url(#clipPath2)" stroke="none">hasPart</text>
      <path fill="none" d="M1115.2948 -126.7461 L1115.2948 -279.2948 L1137.7089 -301.7089 L1373.2651 -301.7089" clip-path="url(#clipPath2)"/>
      <path d="M1381.2651 -301.7089 L1369.2651 -306.7089 L1372.2651 -301.7089 L1369.2651 -296.7089 Z" clip-path="url(#clipPath2)" stroke="none"/>
      <text x="1124.6171" xml:space="preserve" y="-205.4633" clip-path="url(#clipPath2)" stroke="none">hasPart</text>
      <path fill="none" d="M721.2948 24.2911 L738.2911 24.2911 L744.9522 30.9522 L744.9522 326.0113" clip-path="url(#clipPath2)"/>
      <path d="M744.9522 334.0113 L749.9522 322.0113 L744.9522 325.0113 L739.9522 322.0113 Z" clip-path="url(#clipPath2)" stroke="none"/>
      <text x="694.7656" xml:space="preserve" y="59.005" clip-path="url(#clipPath2)" stroke="none">foundInTable</text>
      <path fill="none" d="M1153.6149 33.2911 L1153.6149 269.3851 L1131.4518 291.5482 L816.4517 291.5482 L804.0607 303.9394 L804.0607 326.0189" clip-path="url(#clipPath2)"/>
      <path d="M804.0607 334.0189 L809.0607 322.0189 L804.0607 325.0189 L799.0607 322.0189 Z" clip-path="url(#clipPath2)" stroke="none"/>
      <text x="1088.5875" xml:space="preserve" y="163.2273" clip-path="url(#clipPath2)" stroke="none">foundInTable</text>
      <path fill="none" d="M836.6149 349.0482 L938.588 349.0482" clip-path="url(#clipPath2)"/>
      <path d="M946.588 349.0482 L934.588 344.0482 L937.588 349.0482 L934.588 354.0482 Z" clip-path="url(#clipPath2)" stroke="none"/>
      <text x="841.2908" xml:space="preserve" y="365.1127" clip-path="url(#clipPath2)" stroke="none">le:includesVariable</text>
      <path fill="none" d="M1056.6149 349.0482 L1158.588 349.0482" clip-path="url(#clipPath2)"/>
      <path d="M1166.588 349.0482 L1154.588 344.0482 L1157.588 349.0482 L1154.588 354.0482 Z" clip-path="url(#clipPath2)" stroke="none"/>
      <text x="1064.42" xml:space="preserve" y="365.1127" clip-path="url(#clipPath2)" stroke="none">le:interpretedAs</text>
      <path fill="none" d="M1188.1149 364.0482 L1188.1149 495.8851 L1165.4758 518.5241 L854.6149 518.5241" clip-path="url(#clipPath2)"/>
      <path d="M846.6149 518.5241 L858.6149 523.5241 L855.6149 518.5241 L858.6149 513.5241 Z" clip-path="url(#clipPath2)" stroke="none"/>
      <text x="1082.1816" xml:space="preserve" y="511.8874" clip-path="url(#clipPath2)" stroke="none">le:interpretationReferences</text>
      <path fill="none" d="M871.6282 3.248 L871.6282 -349.6281 L893.7089 -371.7089 L1108.2677 -371.7089" clip-path="url(#clipPath2)"/>
      <path d="M1116.2677 -371.7089 L1104.2677 -376.7089 L1107.2677 -371.7089 L1104.2677 -366.7089 Z" clip-path="url(#clipPath2)" stroke="none"/>
      <text x="897.1287" xml:space="preserve" y="-355.6444" clip-path="url(#clipPath2)" stroke="none">le:sensingWith</text>
      <path fill="none" d="M1356.6149 468.9529 L1460.3365 468.9529" clip-path="url(#clipPath2)"/>
      <path d="M1468.3365 468.9529 L1456.3365 463.9529 L1459.3365 468.9529 L1456.3365 473.9529 Z" clip-path="url(#clipPath2)" stroke="none"/>
      <rect x="1361.6149" y="459.6023" clip-path="url(#clipPath2)" fill="white" width="84.0391" height="18.7012" stroke="none"/>
      <text x="1363.6149" xml:space="preserve" y="473.6667" clip-path="url(#clipPath2)" stroke="none">hasUncertainty</text>
      <path fill="none" d="M1483.2948 163.2911 L1483.2948 435.8232" clip-path="url(#clipPath2)"/>
      <path d="M1483.2948 443.8232 L1488.2948 431.8232 L1483.2948 434.8232 L1478.2948 431.8232 Z" clip-path="url(#clipPath2)" stroke="none"/>
      <rect x="1471.2753" y="294.2237" clip-path="url(#clipPath2)" fill="white" width="84.0391" height="18.7012" stroke="none"/>
      <text x="1473.2753" xml:space="preserve" y="308.2881" clip-path="url(#clipPath2)" stroke="none">hasUncertainty</text>
      <path fill="none" d="M1326.6149 219.0482 L1458.0482 219.0482 L1480.2948 241.2948 L1480.2948 435.808" clip-path="url(#clipPath2)"/>
      <path d="M1480.2948 443.808 L1485.2948 431.808 L1480.2948 434.808 L1475.2948 431.808 Z" clip-path="url(#clipPath2)" stroke="none"/>
      <text x="1352.312" xml:space="preserve" y="253.7621" clip-path="url(#clipPath2)" stroke="none">hasUncertainty</text>
      <path fill="none" d="M1001.6149 364.0482 L1001.6149 427.6149 L1024.4529 450.4529 L1460.3368 450.4529" clip-path="url(#clipPath2)"/>
      <path d="M1468.3368 450.4529 L1456.3368 445.4529 L1459.3368 450.4529 L1456.3368 455.4529 Z" clip-path="url(#clipPath2)" stroke="none"/>
      <rect x="959.5953" y="393.6563" clip-path="url(#clipPath2)" fill="white" width="84.0391" height="18.7012" stroke="none"/>
      <text x="961.5953" xml:space="preserve" y="407.7207" clip-path="url(#clipPath2)" stroke="none">hasUncertainty</text>
      <path fill="none" d="M1517.2948 -96.7089 L1517.2948 435.8245" clip-path="url(#clipPath2)"/>
      <path d="M1517.2948 443.8245 L1522.2948 431.8245 L1517.2948 434.8245 L1512.2948 431.8245 Z" clip-path="url(#clipPath2)" stroke="none"/>
      <path fill="none" d="M1551.2948 -156.7089 L1551.2948 435.8208" clip-path="url(#clipPath2)"/>
      <path d="M1551.2948 443.8208 L1556.2948 431.8208 L1551.2948 434.8208 L1546.2948 431.8208 Z" clip-path="url(#clipPath2)" stroke="none"/>
      <path fill="none" d="M1531.2948 -301.7089 L1704.2911 -301.7089 L1726.2948 -279.7052 L1726.2948 436.7052 L1704.1426 458.8575 L1586.3639 458.8575" clip-path="url(#clipPath2)"/>
      <path d="M1578.3639 458.8575 L1590.3639 463.8575 L1587.3639 458.8575 L1590.3639 453.8575 Z" clip-path="url(#clipPath2)" stroke="none"/>
      <rect x="1575.7734" y="-311.0595" clip-path="url(#clipPath2)" fill="white" width="84.0391" height="18.7012" stroke="none"/>
      <text x="1577.7734" xml:space="preserve" y="-296.995" clip-path="url(#clipPath2)" stroke="none">hasUncertainty</text>
      <path fill="none" d="M416.8876 -239.4499 L416.8876 -269.8876 L429.2695 -282.2695 L724.3295 -282.2695" clip-path="url(#clipPath2)"/>
      <path d="M732.3295 -282.2695 L720.3295 -287.2695 L723.3295 -282.2695 L720.3295 -277.2695 Z" clip-path="url(#clipPath2)" stroke="none"/>
      <rect x="447.3274" y="-291.6201" clip-path="url(#clipPath2)" fill="white" width="214.1172" height="18.7012" stroke="none"/>
      <text x="449.3274" xml:space="preserve" y="-277.5556" clip-path="url(#clipPath2)" stroke="none">le:datasetCreator, le:datasetContributor</text>
      <path fill="none" d="M1286.6149 234.0482 L1286.6149 261.0141" clip-path="url(#clipPath2)"/>
      <path d="M1286.6149 269.0141 L1291.6149 257.0141 L1286.6149 260.0141 L1281.6149 257.0141 Z" clip-path="url(#clipPath2)" stroke="none"/>
      <text x="1232.5973" xml:space="preserve" y="256.2621" clip-path="url(#clipPath2)" stroke="none">hasCode</text>
      <path fill="none" d="M896.2948 33.2911 L896.2948 71.2948 L911.1697 86.1697 L938.5803 86.1697" clip-path="url(#clipPath2)"/>
      <path d="M946.5803 86.1697 L934.5803 81.1697 L937.5803 86.1697 L934.5803 91.1697 Z" clip-path="url(#clipPath2)" stroke="none"/>
      <rect x="856.2733" y="50.1177" clip-path="url(#clipPath2)" fill="white" width="80.043" height="18.7012" stroke="none"/>
      <text x="858.2733" xml:space="preserve" y="64.1821" clip-path="url(#clipPath2)" stroke="none">le:observedAs</text>
      <path fill="none" d="M1086.6149 86.1697 L1109.8303 86.1697 L1118.5615 77.4385 L1118.5615 41.2911" clip-path="url(#clipPath2)"/>
      <path d="M1118.5615 33.2911 L1113.5615 45.2911 L1118.5615 42.2911 L1123.5615 45.2911 Z" clip-path="url(#clipPath2)" stroke="none"/>
      <rect x="1093.6915" y="76.8191" clip-path="url(#clipPath2)" fill="white" width="20.6699" height="18.7012" stroke="none"/>
      <text x="1095.6915" xml:space="preserve" y="90.8835" clip-path="url(#clipPath2)" stroke="none">isA</text>
      <path fill="none" d="M1301.9423 71.1372 L1301.9423 37.9422 L1288.2911 24.2911 L1239.2948 24.2911" clip-path="url(#clipPath2)"/>
      <path d="M1231.2948 24.2911 L1243.2948 29.2911 L1240.2948 24.2911 L1243.2948 19.2911 Z" clip-path="url(#clipPath2)" stroke="none"/>
      <rect x="1265.6004" y="38.0301" clip-path="url(#clipPath2)" fill="white" width="72.6836" height="18.7012" stroke="none"/>
      <text x="1267.6005" xml:space="preserve" y="52.0945" clip-path="url(#clipPath2)" stroke="none">inferredFrom</text>
      <path fill="none" d="M1379.5896 86.1697 L1566.1697 86.1697 L1588.3639 108.3639 L1588.3639 487.4529 L1364.6149 487.4529" clip-path="url(#clipPath2)"/>
      <path d="M1356.6149 487.4529 L1368.6149 492.4529 L1365.6149 487.4529 L1368.6149 482.4529 Z" clip-path="url(#clipPath2)" stroke="none"/>
      <rect x="1411.866" y="76.8191" clip-path="url(#clipPath2)" fill="white" width="84.0273" height="18.7012" stroke="none"/>
      <text x="1413.866" xml:space="preserve" y="90.8835" clip-path="url(#clipPath2)" stroke="none">calibratedFrom</text>
    </g>
  </g>
</svg>
